{"glyphs":{"0":{"ha":947,"x_min":0,"x_max":0,"o":"m 479 -14 b 896 479 692 -14 896 176 b 469 982 896 818 667 982 b 51 489 256 982 51 792 b 479 -14 51 150 282 -14 z m 528 14 b 164 572 306 14 163 294 b 424 954 165 794 253 954 b 783 394 642 954 785 674 b 528 14 782 174 696 14 z "},"1":{"ha":419,"x_min":0,"x_max":0,"o":"m 93 0 l 340 0 l 340 18 b 274 176 289 31 274 63 l 274 979 l 263 979 l 35 815 l 38 806 l 160 857 l 160 176 b 93 18 160 63 144 31 z "},"2":{"ha":690,"x_min":0,"x_max":0,"o":"m 7 19 l 7 0 l 617 0 l 638 194 l 624 196 b 432 93 599 119 569 93 l 115 93 b 607 758 285 243 608 496 b 382 982 606 900 504 982 b 90 826 258 982 167 918 l 101 814 b 306 910 160 879 233 910 b 483 724 413 910 483 839 b 7 19 483 464 199 204 z "},"3":{"ha":654,"x_min":0,"x_max":0,"o":"m 43 -176 l 51 -194 b 594 375 346 -39 594 142 b 365 578 594 532 456 578 b 286 567 333 578 308 574 b 513 819 418 633 513 696 b 326 982 513 904 443 982 b 49 836 214 982 129 926 l 61 824 b 256 913 121 885 189 913 b 403 781 344 913 403 864 b 200 540 403 674 332 601 l 206 526 b 300 550 236 542 269 550 b 472 351 383 550 472 511 b 43 -176 472 181 310 -40 z "},"4":{"ha":711,"x_min":0,"x_max":0,"o":"m 21 246 l 447 246 l 447 176 b 392 18 447 63 433 31 l 392 0 l 615 0 l 615 18 b 560 176 572 31 560 63 l 560 247 l 632 247 b 665 267 647 247 661 251 l 675 314 l 674 317 l 560 317 l 560 982 l 536 982 l 14 260 z m 82 317 l 447 824 l 447 317 z "},"5":{"ha":646,"x_min":0,"x_max":0,"o":"m 25 -178 l 38 -194 b 571 411 376 14 571 206 b 274 658 571 529 490 658 b 96 633 201 658 147 650 l 135 883 l 306 883 b 554 1054 468 883 521 978 l 539 1061 b 344 972 515 1006 468 972 l 131 972 l 60 553 l 74 543 b 222 564 101 549 156 563 b 450 374 360 567 450 503 b 25 -178 450 186 278 -18 z "},"6":{"ha":728,"x_min":0,"x_max":0,"o":"m 369 -14 b 683 335 507 -14 683 88 b 410 635 683 525 568 635 b 193 550 335 635 256 603 b 558 1086 226 711 319 932 l 547 1103 b 51 363 197 885 51 575 b 369 -14 51 131 178 -14 z m 176 401 b 189 528 176 433 179 476 b 347 582 249 572 308 582 b 578 256 490 582 578 450 b 404 13 578 86 499 13 b 176 401 244 13 176 197 z "},"7":{"ha":568,"x_min":0,"x_max":0,"o":"m 128 0 l 271 0 b 300 318 257 78 265 193 b 578 961 333 438 439 717 l 578 972 l 29 972 l 1 785 l 14 783 b 189 885 50 876 72 886 l 508 881 b 219 328 408 696 293 490 b 128 0 163 203 128 90 z "},"8":{"ha":725,"x_min":0,"x_max":0,"o":"m 340 -14 b 672 275 536 -14 672 107 b 442 535 672 404 558 471 b 614 790 531 599 614 688 b 376 982 614 892 524 982 b 103 742 200 982 103 854 b 249 507 103 631 167 561 b 51 215 157 442 51 344 b 340 -14 51 58 211 -14 z m 156 265 b 265 496 156 351 196 439 b 588 193 407 407 588 353 b 393 17 588 93 508 17 b 156 265 304 17 156 71 z m 182 806 b 342 957 182 881 233 957 b 510 768 471 957 510 850 b 421 546 510 683 465 599 b 182 806 300 611 182 678 z "},"9":{"ha":728,"x_min":0,"x_max":0,"o":"m 358 982 b 44 633 221 982 44 881 b 318 333 44 443 160 333 b 535 418 393 333 472 365 b 169 -118 501 257 408 36 l 181 -135 b 676 606 531 83 676 393 b 358 982 676 838 550 982 z m 150 713 b 324 956 150 882 229 956 b 551 567 483 956 551 771 b 539 440 551 535 549 492 b 381 386 479 396 419 386 b 150 713 238 386 150 518 z "},"¤":{"ha":514,"x_min":0,"x_max":0,"o":"m 253 268 l 268 268 b 360 364 268 315 299 364 l 360 379 b 268 478 299 379 268 432 l 253 478 b 160 379 253 432 225 379 l 160 364 b 253 268 225 364 253 315 z "},"¨":{"ha":514,"x_min":0,"x_max":0,"o":"m 253 268 l 268 268 b 360 364 268 315 299 364 l 360 379 b 268 478 299 379 268 432 l 253 478 b 160 379 253 432 225 379 l 160 364 b 253 268 225 364 253 315 z "},"¬":{"ha":514,"x_min":0,"x_max":0,"o":"m 253 268 l 268 268 b 360 364 268 315 299 364 l 360 379 b 268 478 299 379 268 432 l 253 478 b 160 379 253 432 225 379 l 160 364 b 253 268 225 364 253 315 z "},"¯":{"ha":514,"x_min":0,"x_max":0,"o":"m 253 268 l 268 268 b 360 364 268 315 299 364 l 360 379 b 268 478 299 379 268 432 l 253 478 b 160 379 253 432 225 379 l 160 364 b 253 268 225 364 253 315 z "},"´":{"ha":514,"x_min":0,"x_max":0,"o":"m 253 268 l 268 268 b 360 364 268 315 299 364 l 360 379 b 268 478 299 379 268 432 l 253 478 b 160 379 253 432 225 379 l 160 364 b 253 268 225 364 253 315 z "},"µ":{"ha":514,"x_min":0,"x_max":0,"o":"m 253 268 l 268 268 b 360 364 268 315 299 364 l 360 379 b 268 478 299 379 268 432 l 253 478 b 160 379 253 432 225 379 l 160 364 b 253 268 225 364 253 315 z "},"¸":{"ha":514,"x_min":0,"x_max":0,"o":"m 253 268 l 268 268 b 360 364 268 315 299 364 l 360 379 b 268 478 299 379 268 432 l 253 478 b 160 379 253 432 225 379 l 160 364 b 253 268 225 364 253 315 z "},"―":{"ha":514,"x_min":0,"x_max":0,"o":"m 253 268 l 268 268 b 360 364 268 315 299 364 l 360 379 b 268 478 299 379 268 432 l 253 478 b 160 379 253 432 225 379 l 160 364 b 253 268 225 364 253 315 z "},"‖":{"ha":514,"x_min":0,"x_max":0,"o":"m 253 268 l 268 268 b 360 364 268 315 299 364 l 360 379 b 268 478 299 379 268 432 l 253 478 b 160 379 253 432 225 379 l 160 364 b 253 268 225 364 253 315 z "},"‗":{"ha":514,"x_min":0,"x_max":0,"o":"m 253 268 l 268 268 b 360 364 268 315 299 364 l 360 379 b 268 478 299 379 268 432 l 253 478 b 160 379 253 432 225 379 l 160 364 b 253 268 225 364 253 315 z "},"‚":{"ha":514,"x_min":0,"x_max":0,"o":"m 253 268 l 268 268 b 360 364 268 315 299 364 l 360 379 b 268 478 299 379 268 432 l 253 478 b 160 379 253 432 225 379 l 160 364 b 253 268 225 364 253 315 z "},"‛":{"ha":514,"x_min":0,"x_max":0,"o":"m 253 268 l 268 268 b 360 364 268 315 299 364 l 360 379 b 268 478 299 379 268 432 l 253 478 b 160 379 253 432 225 379 l 160 364 b 253 268 225 364 253 315 z "},"‟":{"ha":514,"x_min":0,"x_max":0,"o":"m 253 268 l 268 268 b 360 364 268 315 299 364 l 360 379 b 268 478 299 379 268 432 l 253 478 b 160 379 253 432 225 379 l 160 364 b 253 268 225 364 253 315 z "},"†":{"ha":514,"x_min":0,"x_max":0,"o":"m 253 268 l 268 268 b 360 364 268 315 299 364 l 360 379 b 268 478 299 379 268 432 l 253 478 b 160 379 253 432 225 379 l 160 364 b 253 268 225 364 253 315 z "},"‡":{"ha":514,"x_min":0,"x_max":0,"o":"m 253 268 l 268 268 b 360 364 268 315 299 364 l 360 379 b 268 478 299 379 268 432 l 253 478 b 160 379 253 432 225 379 l 160 364 b 253 268 225 364 253 315 z "},"‣":{"ha":514,"x_min":0,"x_max":0,"o":"m 253 268 l 268 268 b 360 364 268 315 299 364 l 360 379 b 268 478 299 379 268 432 l 253 478 b 160 379 253 432 225 379 l 160 364 b 253 268 225 364 253 315 z "},"․":{"ha":514,"x_min":0,"x_max":0,"o":"m 253 268 l 268 268 b 360 364 268 315 299 364 l 360 379 b 268 478 299 379 268 432 l 253 478 b 160 379 253 432 225 379 l 160 364 b 253 268 225 364 253 315 z "},"‥":{"ha":514,"x_min":0,"x_max":0,"o":"m 253 268 l 268 268 b 360 364 268 315 299 364 l 360 379 b 268 478 299 379 268 432 l 253 478 b 160 379 253 432 225 379 l 160 364 b 253 268 225 364 253 315 z "}," ":{"ha":292,"x_min":0,"x_max":0,"o":""}," ":{"ha":292,"x_min":0,"x_max":0,"o":""},"!":{"ha":310,"x_min":0,"x_max":0,"o":"m 147 221 l 164 221 l 219 958 l 211 964 l 85 888 z m 156 -10 b 226 65 194 -10 226 25 b 156 139 226 106 194 139 b 83 65 117 139 83 106 b 156 -10 83 25 117 -10 z "},"\"":{"ha":386,"x_min":0,"x_max":0,"o":"m 53 900 l 92 625 l 103 625 l 142 900 b 97 982 149 949 132 982 b 53 900 61 982 46 949 z m 233 900 l 272 625 l 283 625 l 322 900 b 278 982 329 949 313 982 b 233 900 242 982 226 949 z "},"#":{"ha":1124,"x_min":0,"x_max":0,"o":"m 726 -1 l 749 -1 l 749 299 l 1046 299 l 1046 317 l 749 317 l 749 658 l 1046 658 l 1046 676 l 749 676 l 749 972 l 726 972 l 726 676 l 390 676 l 390 972 l 368 972 l 368 676 l 72 676 l 72 658 l 368 658 l 368 317 l 72 317 l 72 299 l 368 299 l 368 -1 l 390 -1 l 390 299 l 726 299 z m 390 317 l 390 658 l 726 658 l 726 317 z "},"$":{"ha":750,"x_min":0,"x_max":0,"o":"m 365 -14 l 375 -14 l 375 -181 l 397 -181 l 397 -12 b 689 267 575 0 689 113 b 397 544 689 415 540 481 l 397 954 b 651 761 501 947 592 900 l 664 764 l 649 924 b 403 982 588 958 499 982 l 397 982 l 397 1111 l 375 1111 l 375 982 b 60 714 158 971 60 838 b 375 413 60 547 226 482 l 375 13 b 81 281 225 18 131 93 l 67 279 l 82 61 b 365 -14 140 13 263 -14 z m 140 783 b 363 956 140 865 211 956 l 375 956 l 375 554 b 140 783 253 610 140 668 z m 397 13 l 397 403 b 600 193 507 351 600 296 b 397 13 600 94 538 15 z "},"%":{"ha":1079,"x_min":0,"x_max":0,"o":"m 126 -7 l 953 965 l 939 979 l 113 7 z m 272 492 b 529 753 386 492 529 572 b 292 979 529 900 411 979 b 32 726 165 979 32 889 b 272 492 32 568 157 492 z m 310 521 b 104 782 193 521 104 644 b 256 953 101 892 169 953 b 458 692 379 953 458 824 b 310 521 458 582 399 521 z m 794 -14 b 1050 247 908 -14 1050 67 b 814 474 1050 394 933 474 b 553 219 688 474 553 383 b 794 -14 553 63 679 -14 z m 831 15 b 625 276 714 15 625 139 b 776 447 624 386 690 447 b 981 185 900 447 981 317 b 831 15 981 75 921 15 z "},"&":{"ha":1190,"x_min":0,"x_max":0,"o":"m 875 -10 b 1139 296 992 -10 1139 139 b 1010 499 1139 383 1088 463 l 1171 499 l 1178 518 l 676 518 l 669 499 l 974 499 b 1050 271 1017 483 1050 354 b 971 53 1050 163 1036 53 b 524 429 886 53 686 240 b 310 806 426 543 310 690 b 472 956 310 872 357 956 b 710 774 551 956 643 929 l 722 776 l 707 938 b 514 982 646 972 568 982 b 217 749 297 982 217 851 b 288 546 217 682 244 617 b 40 256 119 488 40 379 b 313 -14 40 111 150 -14 b 590 182 425 -14 524 56 b 875 -10 699 75 810 -10 z m 138 306 b 297 532 138 392 174 483 b 438 350 335 474 383 414 b 576 196 481 299 528 244 b 368 61 525 108 440 61 b 138 306 222 61 138 185 z "},"'":{"ha":203,"x_min":0,"x_max":0,"o":"m 58 900 l 97 625 l 108 625 l 147 900 b 103 982 154 949 138 982 b 58 900 67 982 51 949 z "},"(":{"ha":556,"x_min":0,"x_max":0,"o":"m 496 -376 l 506 -365 b 206 358 292 -207 206 90 b 532 1099 206 629 299 931 l 522 1111 b 119 358 264 929 119 632 b 496 -376 119 85 268 -225 z "},")":{"ha":556,"x_min":0,"x_max":0,"o":"m 63 -365 l 72 -376 b 449 358 300 -225 449 85 b 46 1111 449 632 304 929 l 36 1099 b 363 358 269 931 363 629 b 63 -365 363 90 276 -207 z "},"*":{"ha":488,"x_min":0,"x_max":0,"o":"m 240 526 b 279 596 271 526 289 554 l 244 749 l 360 643 b 440 642 390 614 425 615 b 397 710 454 667 439 697 l 249 756 l 397 803 b 440 871 439 815 454 846 b 360 869 425 897 390 899 l 244 764 l 279 917 b 240 986 289 957 271 986 b 201 917 210 986 192 957 l 236 764 l 121 869 b 40 871 90 899 56 897 b 83 803 26 846 42 815 l 232 756 l 83 710 b 40 642 42 697 26 667 b 121 643 56 615 90 614 l 236 749 l 201 596 b 240 526 192 554 210 526 z "},"+":{"ha":775,"x_min":0,"x_max":0,"o":"m 376 218 l 396 226 l 396 453 l 622 453 l 631 472 l 396 472 l 396 710 l 376 701 l 376 472 l 147 472 l 139 453 l 376 453 z "},",":{"ha":329,"x_min":0,"x_max":0,"o":"m 76 -176 l 82 -189 b 246 32 164 -160 246 -69 b 158 139 247 100 213 139 b 83 60 114 139 83 106 b 151 -8 83 22 114 -8 b 185 -1 164 -8 174 -6 b 76 -176 181 -72 149 -140 z "},"-":{"ha":507,"x_min":0,"x_max":0,"o":"m 72 338 l 435 338 l 435 357 l 72 357 z "},"­":{"ha":507,"x_min":0,"x_max":0,"o":"m 72 338 l 435 338 l 435 357 l 72 357 z "},".":{"ha":310,"x_min":0,"x_max":0,"o":"m 156 -10 b 226 65 194 -10 226 25 b 156 139 226 106 194 139 b 83 65 117 139 83 106 b 156 -10 83 25 117 -10 z "},"/":{"ha":542,"x_min":0,"x_max":0,"o":"m -31 -379 l 592 1107 l 572 1115 l -50 -371 z "},":":{"ha":240,"x_min":0,"x_max":0,"o":"m 156 -10 b 226 65 194 -10 226 25 b 156 139 226 106 194 139 b 83 65 117 139 83 106 b 156 -10 83 25 117 -10 z m 156 449 b 226 524 194 449 226 483 b 156 597 226 564 194 597 b 83 524 117 597 83 564 b 156 449 83 483 117 449 z "},";":{"ha":240,"x_min":0,"x_max":0,"o":"m 92 -176 l 97 -189 b 261 32 179 -160 261 -69 b 174 139 263 100 228 139 b 99 60 129 139 99 106 b 167 -8 99 22 129 -8 b 200 -1 179 -8 189 -6 b 92 -176 196 -72 164 -140 z m 156 449 b 226 524 194 449 226 483 b 156 597 226 564 194 597 b 83 524 117 597 83 564 b 156 449 83 483 117 449 z "},"<":{"ha":775,"x_min":0,"x_max":0,"o":"m 601 271 l 610 288 l 217 465 l 610 643 l 601 660 l 193 478 l 193 453 z "},"=":{"ha":775,"x_min":0,"x_max":0,"o":"m 139 563 l 622 563 l 631 582 l 147 582 z m 139 340 l 622 340 l 631 360 l 147 360 z "},">":{"ha":775,"x_min":0,"x_max":0,"o":"m 201 271 l 610 453 l 610 478 l 201 660 l 193 643 l 586 465 l 193 288 z "},"?":{"ha":546,"x_min":0,"x_max":0,"o":"m 213 211 l 303 260 l 294 515 b 513 789 407 574 513 661 b 301 982 513 914 414 982 b 14 783 161 982 63 892 l 32 775 b 244 925 75 871 156 925 b 404 758 322 925 404 878 b 203 488 404 672 360 565 l 204 215 z m 251 -10 b 322 65 290 -10 322 25 b 251 139 322 106 290 139 b 179 65 213 139 179 106 b 251 -10 179 25 213 -10 z "},"@":{"ha":1325,"x_min":0,"x_max":0,"o":"m 467 -275 b 1004 -61 690 -275 903 -146 l 996 -49 b 506 -233 871 -150 683 -233 b 143 117 386 -233 143 -196 b 842 849 143 443 440 849 b 1174 542 1115 849 1174 683 b 794 22 1174 339 1017 22 b 739 85 738 22 739 67 b 828 367 739 135 775 240 b 985 696 878 492 931 601 l 971 703 l 897 613 b 750 704 856 675 799 704 b 297 119 547 704 297 315 b 388 -10 297 53 333 -10 b 779 411 496 -10 656 222 b 664 65 710 257 664 128 b 746 -15 664 25 689 -15 b 1271 571 940 -15 1271 260 b 872 882 1271 714 1168 882 b 56 89 469 882 56 447 b 467 -275 56 -200 268 -275 z m 404 143 b 682 656 404 303 535 654 b 836 532 749 657 799 600 l 833 528 b 450 53 744 392 532 53 b 404 143 421 53 404 86 z "},"A":{"ha":890,"x_min":0,"x_max":0,"o":"m -24 0 l 133 0 l 133 18 b 117 164 86 28 81 74 l 199 367 l 590 367 l 675 163 b 688 18 719 58 731 31 l 688 0 l 903 0 l 903 18 b 797 163 874 31 840 58 l 456 983 l 351 936 l 364 907 b 367 842 375 885 376 867 l 93 164 b -24 18 50 58 15 31 z m 207 388 l 392 844 l 582 388 z "},"B":{"ha":850,"x_min":0,"x_max":0,"o":"m 354 0 b 806 319 692 0 808 164 b 478 579 804 456 704 568 b 697 789 636 608 697 694 b 396 972 697 901 610 972 l 71 972 l 71 954 b 126 796 113 942 126 910 l 126 176 b 71 18 126 63 113 31 l 71 0 z m 367 21 l 313 21 b 240 142 253 21 240 42 l 240 561 l 382 561 b 679 285 590 561 679 444 b 367 21 679 131 593 21 z m 369 582 l 240 582 l 240 951 l 346 951 b 571 764 489 951 571 879 b 369 582 571 663 507 582 z "},"":{"ha":850,"x_min":0,"x_max":0,"o":"m 354 0 b 806 319 692 0 808 164 b 478 579 804 456 704 568 b 697 789 636 608 697 694 b 396 972 697 901 610 972 l 71 972 l 71 954 b 126 796 113 942 126 910 l 126 176 b 71 18 126 63 113 31 l 71 0 z m 367 21 l 313 21 b 240 142 253 21 240 42 l 240 561 l 382 561 b 679 285 590 561 679 444 b 367 21 679 131 593 21 z m 369 582 l 240 582 l 240 951 l 346 951 b 571 764 489 951 571 879 b 369 582 571 663 507 582 z "},"C":{"ha":1029,"x_min":0,"x_max":0,"o":"m 596 -14 b 949 61 751 -14 883 25 l 971 242 l 956 243 b 635 14 901 93 785 14 b 189 525 346 14 188 264 b 581 956 189 808 360 956 b 932 744 746 956 878 871 l 946 747 l 940 913 b 628 982 886 947 747 982 b 72 467 301 982 72 763 b 596 -14 72 164 276 -14 z "},"D":{"ha":1007,"x_min":0,"x_max":0,"o":"m 435 0 b 936 504 740 0 938 211 b 403 972 935 729 785 972 l 71 972 l 71 954 b 126 796 113 942 126 910 l 126 176 b 71 18 126 63 113 31 l 71 0 z m 432 21 l 331 21 b 240 122 254 21 240 57 l 240 951 l 335 951 b 810 449 644 951 810 726 b 432 21 810 158 675 21 z "},"E":{"ha":818,"x_min":0,"x_max":0,"o":"m 756 0 l 767 185 l 751 188 b 483 21 701 58 617 21 l 303 21 b 240 83 263 21 240 43 l 240 510 l 418 510 b 633 415 576 510 617 478 l 650 415 l 650 625 l 633 625 b 418 531 617 563 576 531 l 240 531 l 240 951 l 444 951 b 717 788 586 951 668 910 l 732 792 l 717 972 l 71 972 l 71 954 b 126 796 113 942 126 910 l 126 176 b 71 18 126 63 113 31 l 71 0 z "},"":{"ha":818,"x_min":0,"x_max":0,"o":"m 756 0 l 767 185 l 751 188 b 483 21 701 58 617 21 l 303 21 b 240 83 263 21 240 43 l 240 510 l 418 510 b 633 415 576 510 617 478 l 650 415 l 650 625 l 633 625 b 418 531 617 563 576 531 l 240 531 l 240 951 l 444 951 b 717 788 586 951 668 910 l 732 792 l 717 972 l 71 972 l 71 954 b 126 796 113 942 126 910 l 126 176 b 71 18 126 63 113 31 l 71 0 z "},"F":{"ha":776,"x_min":0,"x_max":0,"o":"m 71 0 l 296 0 l 296 18 b 240 176 253 31 240 63 l 240 521 l 406 521 b 621 425 564 521 603 488 l 638 425 l 638 636 l 621 636 b 406 543 603 575 564 542 l 240 543 l 240 950 l 486 950 b 722 822 617 950 675 915 l 738 826 l 725 972 l 71 972 l 71 954 b 126 796 113 942 126 910 l 126 176 b 71 18 126 63 113 31 z "},"G":{"ha":1031,"x_min":0,"x_max":0,"o":"m 583 -14 b 965 171 724 -14 885 58 l 965 432 l 783 432 l 783 415 b 854 281 843 400 854 367 l 856 139 b 626 14 821 69 731 14 b 185 564 346 14 182 301 b 538 957 188 819 338 957 b 879 743 700 957 828 863 l 893 746 l 888 910 b 578 982 833 946 701 982 b 72 479 281 982 72 758 b 583 -14 72 181 274 -14 z "},"H":{"ha":1008,"x_min":0,"x_max":0,"o":"m 71 0 l 296 0 l 296 18 b 240 176 253 31 240 63 l 240 504 l 769 504 l 769 176 b 714 18 769 63 756 31 l 714 0 l 939 0 l 939 18 b 883 176 896 31 883 63 l 883 796 b 939 954 883 910 896 942 l 939 972 l 714 972 l 714 954 b 769 796 756 942 769 910 l 769 526 l 240 526 l 240 796 b 296 954 240 910 253 942 l 296 972 l 71 972 l 71 954 b 126 796 113 942 126 910 l 126 176 b 71 18 126 63 113 31 z "},"I":{"ha":367,"x_min":0,"x_max":0,"o":"m 71 0 l 296 0 l 296 18 b 240 176 253 31 240 63 l 240 796 b 296 954 240 910 253 942 l 296 972 l 71 972 l 71 954 b 126 796 113 942 126 910 l 126 176 b 71 18 126 63 113 31 z "},"J":{"ha":383,"x_min":0,"x_max":0,"o":"m -89 -167 b 257 272 90 -167 257 6 l 257 796 b 313 954 257 910 269 942 l 313 972 l 89 972 l 89 954 b 144 796 132 942 144 910 l 144 103 b 71 -93 144 -37 104 -72 b -68 -72 4 -79 -29 -72 b -144 -136 -117 -72 -144 -107 b -89 -167 -144 -162 -125 -167 z "},"K":{"ha":889,"x_min":0,"x_max":0,"o":"m 71 0 l 296 0 l 296 18 b 240 176 253 31 240 63 l 240 415 l 343 521 l 371 521 b 624 215 511 525 532 440 b 817 -7 690 53 715 -7 b 900 3 846 -7 876 -4 l 900 21 b 876 19 892 19 885 19 b 731 246 832 19 801 68 b 397 544 636 483 604 558 l 365 543 l 661 846 b 843 954 740 928 799 942 l 843 972 l 650 972 l 650 960 b 604 815 704 951 692 906 l 240 443 l 240 796 b 296 954 240 910 253 942 l 296 972 l 71 972 l 71 954 b 126 796 113 942 126 910 l 126 176 b 71 18 126 63 113 31 z "},"L":{"ha":754,"x_min":0,"x_max":0,"o":"m 717 0 l 726 157 l 711 160 b 468 22 663 56 601 22 l 303 22 b 240 85 263 22 240 44 l 240 796 b 296 954 240 910 253 942 l 296 972 l 71 972 l 71 954 b 126 796 113 942 126 910 l 126 176 b 71 18 126 63 113 31 l 71 0 z "},"M":{"ha":1154,"x_min":0,"x_max":0,"o":"m 69 0 l 244 0 l 244 18 b 150 232 183 35 150 74 l 150 849 l 506 264 l 532 264 l 885 860 l 885 176 b 829 18 885 63 871 31 l 829 0 l 1054 0 l 1054 18 b 999 176 1011 31 999 63 l 999 740 b 1083 954 999 899 1028 938 l 1083 972 l 926 972 l 571 374 l 208 972 l 40 972 l 40 954 b 125 740 96 938 125 899 l 125 176 b 69 18 125 63 113 31 z "},"N":{"ha":933,"x_min":0,"x_max":0,"o":"m 804 -11 l 822 -11 l 822 796 b 878 954 822 910 835 942 l 878 972 l 703 972 l 703 954 b 799 740 765 938 799 899 l 799 186 l 192 972 l 56 972 l 56 954 b 128 796 111 942 128 910 l 128 176 b 72 18 128 63 114 31 l 72 0 l 246 0 l 246 18 b 150 232 183 35 150 74 l 150 840 z "},"O":{"ha":1129,"x_min":0,"x_max":0,"o":"m 567 -14 b 1058 482 800 -14 1058 139 b 567 983 1058 822 801 983 b 72 488 272 983 72 772 b 567 -14 72 143 331 -14 z m 625 21 b 183 568 376 21 193 289 b 510 951 175 794 299 951 b 950 390 758 951 940 681 b 625 21 957 182 847 21 z "},"P":{"ha":767,"x_min":0,"x_max":0,"o":"m 71 0 l 296 0 l 296 18 b 240 176 253 31 240 63 l 240 385 l 339 385 b 732 699 597 385 732 514 b 353 972 732 833 640 972 l 71 972 l 71 954 b 126 796 113 942 126 910 l 126 176 b 71 18 126 63 113 31 z m 336 406 l 240 406 l 240 949 b 299 951 257 950 279 951 b 610 667 522 951 610 815 b 336 406 610 503 514 406 z "},"Q":{"ha":1129,"x_min":0,"x_max":0,"o":"m 967 -243 b 1165 -106 1039 -243 1099 -183 l 1154 -96 b 1010 -154 1118 -133 1074 -154 b 678 -3 897 -154 789 -87 b 1058 482 875 39 1058 193 b 567 983 1058 822 801 983 b 72 488 272 983 72 772 b 567 -14 72 143 331 -14 b 653 -7 594 -14 624 -11 b 967 -243 719 -94 844 -243 z m 625 21 b 183 568 376 21 193 289 b 510 951 175 794 299 951 b 950 390 758 951 940 681 b 625 21 957 182 847 21 z "},"R":{"ha":850,"x_min":0,"x_max":0,"o":"m 778 -10 b 863 0 806 -10 842 -7 l 863 17 b 840 15 856 15 849 15 b 699 228 793 15 765 61 b 435 506 632 399 606 483 b 710 756 615 526 710 625 b 344 972 710 879 626 972 l 71 972 l 71 954 b 126 796 114 942 126 910 l 126 176 b 71 18 126 63 114 31 l 71 0 l 296 0 l 296 18 b 240 176 253 31 240 63 l 240 501 l 329 501 b 588 213 496 501 507 404 b 778 -10 649 68 671 -10 z m 357 522 l 240 522 l 240 949 b 306 951 263 950 285 951 b 592 724 511 951 592 847 b 357 522 592 606 517 522 z "},"S":{"ha":765,"x_min":0,"x_max":0,"o":"m 396 -14 b 721 265 560 -14 721 92 b 422 544 721 422 576 483 b 161 776 304 593 161 646 b 369 960 161 894 257 960 b 676 753 528 960 625 874 l 690 757 l 685 918 b 414 982 631 947 540 982 b 75 717 210 982 75 879 b 343 446 75 569 179 511 b 631 196 460 399 631 335 b 424 11 631 83 535 11 b 71 281 231 11 125 135 l 56 278 l 63 85 b 396 -14 128 38 250 -14 z "},"":{"ha":765,"x_min":0,"x_max":0,"o":"m 396 -14 b 721 265 560 -14 721 92 b 422 544 721 422 576 483 b 161 776 304 593 161 646 b 369 960 161 894 257 960 b 676 753 528 960 625 874 l 690 757 l 685 918 b 414 982 631 947 540 982 b 75 717 210 982 75 879 b 343 446 75 569 179 511 b 631 196 460 399 631 335 b 424 11 631 83 535 11 b 71 281 231 11 125 135 l 56 278 l 63 85 b 396 -14 128 38 250 -14 z "},"T":{"ha":778,"x_min":0,"x_max":0,"o":"m 276 0 l 503 0 l 503 18 b 447 176 460 31 447 63 l 447 950 l 513 950 b 739 817 638 950 692 917 l 754 819 l 746 972 l 31 972 l 22 819 l 38 817 b 264 950 85 917 139 950 l 332 950 l 332 176 b 276 18 332 63 319 31 z "},"U":{"ha":943,"x_min":0,"x_max":0,"o":"m 501 -14 b 847 371 694 -14 847 92 l 847 796 b 903 954 847 910 861 942 l 903 972 l 731 972 l 731 954 b 825 740 792 938 825 899 l 825 367 b 546 15 825 94 665 15 b 222 367 365 15 222 108 l 222 796 b 278 954 222 910 236 942 l 278 972 l 53 972 l 53 954 b 108 796 96 942 108 910 l 108 358 b 501 -14 108 79 303 -14 z "},"V":{"ha":883,"x_min":0,"x_max":0,"o":"m 99 808 l 424 -7 l 463 -7 l 778 808 b 890 954 818 914 853 942 l 890 972 l 735 972 l 735 954 b 753 807 782 944 788 899 l 489 121 l 221 808 b 211 954 179 914 169 942 l 211 972 l -6 972 l -6 954 b 99 808 24 942 57 914 z "},"W":{"ha":1260,"x_min":0,"x_max":0,"o":"m 496 808 l 622 501 l 474 138 l 217 807 b 210 954 176 914 167 942 l 210 972 l -6 972 l -6 954 b 97 807 25 942 57 914 l 404 0 l 443 0 l 635 471 l 828 0 l 867 0 l 1157 807 b 1268 954 1196 913 1229 942 l 1268 972 l 1111 972 l 1111 954 b 1133 807 1158 944 1167 897 l 892 140 l 704 594 l 782 807 b 893 954 821 913 854 942 l 893 972 l 740 972 l 740 954 b 757 807 786 944 792 899 l 690 626 l 615 810 b 603 954 572 914 561 942 l 603 972 l 390 972 l 390 954 b 496 808 421 942 454 914 z "},"X":{"ha":796,"x_min":0,"x_max":0,"o":"m 589 0 l 804 0 l 804 18 b 683 151 774 31 742 54 l 447 543 l 633 825 b 769 954 696 919 731 942 l 769 972 l 610 972 l 610 954 b 607 825 665 944 661 907 l 433 564 l 279 821 b 243 954 219 918 200 942 l 243 972 l 28 972 l 28 954 b 149 821 58 942 90 918 l 353 483 l 129 147 b -6 18 67 53 32 31 l -6 0 l 153 0 l 153 18 b 156 147 97 28 101 65 l 365 463 l 554 151 b 589 18 613 54 632 31 z "},"Y":{"ha":764,"x_min":0,"x_max":0,"o":"m 263 0 l 489 0 l 489 18 b 433 176 446 31 433 63 l 433 440 l 646 818 b 782 954 701 917 744 942 l 782 972 l 617 972 l 617 954 b 621 818 669 944 668 903 l 426 474 l 233 818 b 203 954 178 917 161 942 l 203 972 l -17 972 l -17 954 b 107 818 13 942 53 917 l 317 438 l 317 176 b 263 18 318 63 304 31 z "},"Z":{"ha":733,"x_min":0,"x_max":0,"o":"m 29 0 l 679 0 l 704 208 l 690 208 b 407 22 635 68 579 22 l 157 22 l 696 954 l 696 972 l 76 972 l 54 778 l 69 778 b 324 950 119 906 183 950 l 564 950 l 29 18 z "},"[":{"ha":514,"x_min":0,"x_max":0,"o":"m 144 -374 l 485 -374 l 485 -357 l 219 -357 l 219 1094 l 485 1094 l 485 1111 l 144 1111 z "},"\\":{"ha":494,"x_min":0,"x_max":0,"o":"m 553 -379 l 572 -371 l -50 1115 l -69 1107 z "},"]":{"ha":513,"x_min":0,"x_max":0,"o":"m 369 -374 l 369 1111 l 29 1111 l 29 1094 l 294 1094 l 294 -357 l 29 -357 l 29 -374 z "},"^":{"ha":550,"x_min":0,"x_max":0,"o":"m 124 649 l 271 947 l 418 649 l 438 658 l 282 972 l 260 972 l 104 658 z "},"_":{"ha":694,"x_min":0,"x_max":0,"o":"m -39 -132 l 740 -132 l 740 -112 l -39 -112 z "},"a":{"ha":736,"x_min":0,"x_max":0,"o":"m 582 0 l 703 0 l 703 18 b 647 176 660 31 647 63 l 647 454 b 401 704 647 611 569 704 b 100 546 281 704 179 644 l 113 535 b 346 658 182 619 263 658 b 540 461 464 658 533 596 l 360 413 b 49 168 194 367 49 313 b 243 -14 49 49 140 -14 b 540 292 381 -14 497 121 l 540 42 b 582 0 540 15 554 0 z m 153 207 b 365 396 151 321 263 367 l 540 443 l 540 440 l 540 401 b 294 68 539 256 443 68 b 153 207 215 68 153 117 z "},"b":{"ha":828,"x_min":0,"x_max":0,"o":"m 407 -12 b 768 365 639 -11 768 172 b 465 704 768 561 642 704 b 206 610 369 704 279 660 l 206 1113 l 193 1122 l 42 1056 l 42 1040 b 97 913 79 1024 97 1010 l 97 0 l 111 0 l 157 90 b 407 -12 207 36 303 -12 z m 206 235 l 206 589 b 400 658 263 628 328 658 b 665 285 596 658 665 439 b 451 15 665 124 596 15 b 206 235 324 15 206 135 z "},"":{"ha":828,"x_min":0,"x_max":0,"o":"m 407 -12 b 768 365 639 -11 768 172 b 465 704 768 561 642 704 b 206 610 369 704 279 660 l 206 1113 l 193 1122 l 42 1056 l 42 1040 b 97 913 79 1024 97 1010 l 97 0 l 111 0 l 157 90 b 407 -12 207 36 303 -12 z m 206 235 l 206 589 b 400 658 263 628 328 658 b 665 285 596 658 665 439 b 451 15 665 124 596 15 b 206 235 324 15 206 135 z "},"c":{"ha":735,"x_min":0,"x_max":0,"o":"m 379 -14 b 707 182 528 -14 636 85 l 694 194 b 447 74 631 122 554 74 b 149 394 267 74 149 204 b 365 682 149 544 236 660 b 576 554 476 594 542 554 b 664 629 621 554 664 597 b 428 704 664 667 561 704 b 50 326 225 704 50 546 b 379 -14 50 103 218 -14 z "},"d":{"ha":806,"x_min":0,"x_max":0,"o":"m 357 -15 b 610 121 456 -17 542 50 l 610 42 b 651 0 610 15 625 0 l 774 0 l 774 18 b 718 176 731 31 718 63 l 718 1113 l 707 1122 l 554 1056 l 554 1040 b 610 913 592 1024 610 1010 l 610 649 b 421 703 561 679 497 703 b 50 331 182 701 50 524 b 357 -15 50 135 185 -14 z m 154 414 b 378 676 154 561 231 676 b 610 486 494 676 597 576 l 610 146 b 419 53 556 90 492 53 b 154 414 231 53 154 251 z "},"e":{"ha":746,"x_min":0,"x_max":0,"o":"m 379 -14 b 707 182 528 -14 636 85 l 694 194 b 447 74 631 122 554 74 b 149 394 267 74 149 204 b 153 458 149 417 150 438 l 696 458 b 415 704 692 590 590 704 b 50 326 221 704 50 553 b 379 -14 50 97 226 -14 z m 157 476 b 369 679 179 593 251 681 b 585 476 496 679 571 569 z "},"f":{"ha":422,"x_min":0,"x_max":0,"o":"m 54 0 l 274 0 l 274 18 b 218 176 231 31 218 63 l 218 665 l 392 665 l 400 685 l 218 685 l 218 768 b 339 1014 218 943 292 988 b 540 967 418 986 478 967 b 632 1047 597 967 632 1022 b 538 1083 632 1071 600 1083 b 110 685 311 1083 121 892 l 36 685 l 29 665 l 110 665 l 110 176 b 54 18 110 63 96 31 z "},"g":{"ha":726,"x_min":0,"x_max":0,"o":"m 247 -385 b 722 -43 476 -385 722 -201 b 500 93 722 65 640 85 l 325 104 b 172 169 219 110 174 132 b 222 231 172 196 192 210 b 357 204 265 213 314 204 b 631 465 471 204 631 306 b 476 683 631 585 561 653 b 521 731 490 703 506 719 b 658 699 583 711 624 699 b 738 769 708 699 738 746 b 665 803 738 790 708 803 b 507 740 599 803 549 778 b 458 690 489 726 472 708 b 357 704 426 700 390 704 b 82 442 214 704 82 588 b 204 239 82 339 135 275 b 103 117 149 203 103 168 b 204 13 103 57 142 28 b 21 -214 92 -56 21 -126 b 247 -385 21 -339 142 -385 z m 383 226 b 183 503 256 226 183 382 b 324 683 183 600 225 679 b 531 403 450 690 531 528 b 383 226 531 308 486 226 z m 114 -162 b 225 8 114 -103 144 -46 b 304 0 250 4 276 1 l 499 -10 b 668 -101 614 -17 668 -36 b 326 -322 668 -211 504 -322 b 114 -162 197 -322 114 -262 z "},"h":{"ha":804,"x_min":0,"x_max":0,"o":"m 38 0 l 257 0 l 257 18 b 201 176 214 31 201 63 l 201 554 b 424 658 272 613 347 658 b 607 435 546 658 607 579 l 607 176 b 551 18 607 63 594 31 l 551 0 l 771 0 l 771 18 b 715 176 728 31 715 63 l 715 463 b 496 704 715 625 632 704 b 201 576 389 704 282 642 l 201 1113 l 189 1122 l 38 1056 l 38 1040 b 93 913 75 1024 93 1010 l 93 176 b 38 18 93 63 81 31 z "},"i":{"ha":313,"x_min":0,"x_max":0,"o":"m 44 0 l 264 0 l 264 18 b 208 176 222 31 208 63 l 208 696 l 197 706 l 44 639 l 44 624 b 100 496 83 607 100 593 l 100 176 b 44 18 100 63 88 31 z m 146 790 b 222 867 189 790 222 825 b 146 944 222 911 190 944 b 69 867 103 944 69 911 b 146 790 69 825 103 790 z "},"j":{"ha":329,"x_min":0,"x_max":0,"o":"m -117 -386 b 233 33 33 -386 233 -192 l 233 696 l 221 706 l 69 639 l 69 624 b 125 496 107 607 125 593 l 125 -61 b 47 -300 125 -185 114 -250 b -106 -279 -10 -292 -68 -279 b -185 -353 -151 -279 -185 -328 b -117 -386 -185 -375 -154 -386 z m 165 790 b 242 867 208 790 242 825 b 165 944 242 911 210 944 b 89 867 122 944 89 911 b 165 790 89 825 122 790 z "},"k":{"ha":736,"x_min":0,"x_max":0,"o":"m 51 0 l 271 0 l 271 18 b 215 176 228 31 215 63 l 215 276 l 344 401 l 471 167 b 653 0 539 42 585 0 l 743 0 l 743 17 b 583 182 681 21 638 85 l 421 475 l 521 572 b 690 676 603 650 649 664 l 690 694 l 526 694 l 526 685 b 457 533 557 671 547 622 l 215 301 l 215 1113 l 203 1122 l 51 1056 l 51 1040 b 107 913 89 1024 107 1010 l 107 176 b 51 18 107 63 94 31 z "},"l":{"ha":329,"x_min":0,"x_max":0,"o":"m 53 0 l 272 0 l 272 18 b 217 176 229 31 217 63 l 217 1113 l 204 1122 l 53 1056 l 53 1040 b 108 913 90 1024 108 1010 l 108 176 b 53 18 108 63 94 31 z "},"m":{"ha":1272,"x_min":0,"x_max":0,"o":"m 44 0 l 264 0 l 264 18 b 208 176 221 31 208 63 l 208 558 b 435 658 283 615 356 658 b 593 449 542 658 593 586 l 593 176 b 538 18 593 63 579 31 l 538 0 l 757 0 l 757 18 b 701 176 714 31 701 63 l 701 474 b 693 556 701 504 699 532 b 921 658 769 615 842 658 b 1079 449 1029 658 1079 586 l 1079 176 b 1024 18 1079 63 1067 31 l 1024 0 l 1243 0 l 1243 18 b 1188 176 1201 31 1188 63 l 1188 474 b 983 704 1188 631 1118 704 b 689 574 879 704 772 640 b 496 704 664 663 599 704 b 208 578 396 704 292 644 l 208 696 l 196 706 l 44 639 l 44 624 b 100 496 82 607 100 593 l 100 176 b 44 18 100 63 88 31 z "},"n":{"ha":811,"x_min":0,"x_max":0,"o":"m 44 0 l 264 0 l 264 18 b 208 176 222 31 208 63 l 208 554 b 431 658 279 613 354 658 b 614 435 553 658 614 579 l 614 176 b 558 18 614 63 601 31 l 558 0 l 778 0 l 778 18 b 722 176 735 31 722 63 l 722 463 b 503 704 722 625 639 704 b 208 576 396 704 289 642 l 208 696 l 197 706 l 44 639 l 44 624 b 100 496 83 607 100 593 l 100 176 b 44 18 100 63 88 31 z "},"o":{"ha":836,"x_min":0,"x_max":0,"o":"m 414 -14 b 776 351 578 -14 776 114 b 414 704 776 599 586 704 b 50 338 224 704 50 554 b 414 -14 50 96 238 -14 z m 456 15 b 157 417 271 15 157 240 b 363 678 157 556 221 672 b 671 269 544 688 671 449 b 456 15 671 135 604 15 z "},"p":{"ha":839,"x_min":0,"x_max":0,"o":"m 421 -12 b 779 365 651 -11 779 171 b 497 704 779 571 658 704 b 219 594 390 704 294 650 l 219 696 l 207 706 l 56 639 l 56 624 b 111 496 93 607 111 593 l 111 -199 b 56 -357 111 -312 97 -344 l 56 -375 l 275 -375 l 275 -357 b 219 -199 232 -344 219 -312 l 219 49 b 421 -12 272 14 344 -12 z m 219 229 l 219 572 b 424 657 278 617 343 657 b 679 285 618 657 679 439 b 465 14 679 124 611 14 b 219 229 340 14 219 135 z "},"q":{"ha":803,"x_min":0,"x_max":0,"o":"m 357 -15 b 611 122 457 -17 543 50 l 611 -199 b 556 -357 611 -312 597 -344 l 556 -375 l 775 -375 l 775 -357 b 719 -199 732 -344 719 -312 l 719 694 l 710 694 l 657 611 b 421 703 607 658 525 703 b 50 331 182 701 50 524 b 357 -15 50 135 185 -14 z m 154 414 b 375 676 154 561 229 676 b 611 467 503 676 611 563 l 611 147 b 419 53 557 90 493 53 b 154 414 231 53 154 251 z "},"r":{"ha":583,"x_min":0,"x_max":0,"o":"m 44 0 l 264 0 l 264 18 b 208 176 221 31 208 63 l 208 453 l 210 453 b 304 626 214 519 264 597 b 478 588 386 603 440 588 b 558 667 528 588 558 636 b 468 704 558 690 524 704 b 310 654 401 704 353 686 b 208 522 268 624 231 576 l 208 696 l 196 706 l 44 639 l 44 624 b 100 496 82 607 100 593 l 100 176 b 44 18 100 63 88 31 z "},"s":{"ha":618,"x_min":0,"x_max":0,"o":"m 314 -12 b 568 204 481 -11 568 88 b 335 410 568 343 440 375 b 136 569 225 446 136 482 b 292 686 136 640 197 686 b 524 522 390 686 479 622 l 538 525 l 532 667 b 317 704 489 685 407 704 b 64 510 156 704 64 619 b 290 306 64 383 158 347 b 494 139 397 271 494 239 b 344 10 494 61 431 10 b 61 222 218 11 119 90 l 49 219 l 61 51 b 314 -12 107 21 203 -12 z "},"":{"ha":618,"x_min":0,"x_max":0,"o":"m 314 -12 b 568 204 481 -11 568 88 b 335 410 568 343 440 375 b 136 569 225 446 136 482 b 292 686 136 640 197 686 b 524 522 390 686 479 622 l 538 525 l 532 667 b 317 704 489 685 407 704 b 64 510 156 704 64 619 b 290 306 64 383 158 347 b 494 139 397 271 494 239 b 344 10 494 61 431 10 b 61 222 218 11 119 90 l 49 219 l 61 51 b 314 -12 107 21 203 -12 z "},"t":{"ha":478,"x_min":0,"x_max":0,"o":"m 263 -14 b 475 114 344 -14 415 46 l 463 126 b 329 54 417 72 368 54 b 231 185 269 54 231 90 l 231 675 l 435 675 l 442 694 l 231 694 l 231 865 l 211 865 l 33 694 l 33 675 l 122 675 l 122 185 b 263 -14 122 40 175 -14 z "},"u":{"ha":786,"x_min":0,"x_max":0,"o":"m 303 -14 b 574 126 407 -14 503 53 l 574 56 b 619 0 574 15 589 0 l 738 0 l 738 18 b 682 176 694 31 682 63 l 682 696 l 669 706 l 518 639 l 518 624 b 574 496 556 607 574 593 l 574 153 b 354 35 511 86 436 35 b 199 264 243 35 199 106 l 199 696 l 186 706 l 35 639 l 35 624 b 90 496 72 607 90 593 l 90 239 b 303 -14 90 79 157 -14 z "},"v":{"ha":669,"x_min":0,"x_max":0,"o":"m 90 532 l 313 0 l 371 0 l 575 529 b 676 676 615 636 638 664 l 676 694 l 533 694 l 533 676 b 553 529 582 667 588 621 l 389 101 l 207 532 b 193 676 163 636 151 664 l 193 694 l -7 694 l -7 676 b 90 532 22 664 47 636 z "},"w":{"ha":981,"x_min":0,"x_max":0,"o":"m 72 525 l 225 0 l 286 0 l 485 576 l 683 0 l 746 0 l 899 525 b 988 676 931 633 949 664 l 988 694 l 846 694 l 846 676 b 878 525 894 667 906 618 l 758 114 l 557 694 l 504 694 l 304 113 l 186 525 b 193 676 154 633 150 664 l 193 694 l -7 694 l -7 676 b 72 525 22 664 40 633 z "},"":{"ha":981,"x_min":0,"x_max":0,"o":"m 72 525 l 225 0 l 286 0 l 485 576 l 683 0 l 746 0 l 899 525 b 988 676 931 633 949 664 l 988 694 l 846 694 l 846 676 b 878 525 894 667 906 618 l 758 114 l 557 694 l 504 694 l 304 113 l 186 525 b 193 676 154 633 150 664 l 193 694 l -7 694 l -7 676 b 72 525 22 664 40 633 z "},"x":{"ha":644,"x_min":0,"x_max":0,"o":"m 433 0 l 647 0 l 647 18 b 514 147 611 31 576 53 l 358 385 l 474 550 b 613 676 539 643 575 664 l 613 694 l 435 694 l 435 676 b 450 550 525 664 515 643 l 346 403 l 251 547 b 210 676 189 642 167 664 l 210 694 l -6 694 l -6 676 b 128 547 31 664 65 642 l 269 333 l 129 142 b -12 18 63 51 25 31 l -12 0 l 167 0 l 167 18 b 154 142 76 31 88 51 l 281 315 l 392 147 b 433 18 454 53 476 31 z "},"y":{"ha":700,"x_min":0,"x_max":0,"o":"m 42 -268 b 371 35 131 -267 253 -237 l 586 532 b 707 676 632 636 668 664 l 707 694 l 553 694 l 553 676 b 565 532 601 667 604 622 l 394 135 l 224 532 b 210 676 179 636 168 664 l 210 694 l 0 694 l 0 676 b 107 532 29 664 64 636 l 335 -3 b 208 -185 300 -75 257 -143 b 33 -153 144 -174 69 -153 b -53 -229 -18 -153 -53 -203 b 42 -268 -53 -251 -12 -269 z "},"":{"ha":700,"x_min":0,"x_max":0,"o":"m 42 -268 b 371 35 131 -267 253 -237 l 586 532 b 707 676 632 636 668 664 l 707 694 l 553 694 l 553 676 b 565 532 601 667 604 622 l 394 135 l 224 532 b 210 676 179 636 168 664 l 210 694 l 0 694 l 0 676 b 107 532 29 664 64 636 l 335 -3 b 208 -185 300 -75 257 -143 b 33 -153 144 -174 69 -153 b -53 -229 -18 -153 -53 -203 b 42 -268 -53 -251 -12 -269 z "},"z":{"ha":601,"x_min":0,"x_max":0,"o":"m 38 0 l 556 0 l 560 206 l 547 206 b 364 21 529 71 458 21 l 161 21 l 547 679 l 547 694 l 75 694 l 50 521 l 63 518 b 244 674 108 636 156 674 l 426 674 l 38 15 z "},"{":{"ha":618,"x_min":0,"x_max":0,"o":"m 490 -412 l 492 -396 b 276 -196 350 -390 276 -328 b 358 176 276 -67 358 51 b 214 349 358 250 300 321 b 358 519 293 374 358 444 b 275 892 358 644 275 760 b 504 1090 275 1013 372 1086 l 504 1106 b 208 863 382 1106 208 1024 b 292 501 208 735 292 607 b 169 357 292 418 243 357 l 169 339 b 292 194 243 339 292 278 b 208 -167 292 93 208 -42 b 490 -412 208 -326 336 -412 z "},"|":{"ha":371,"x_min":0,"x_max":0,"o":"m 182 -375 l 204 -375 l 204 1111 l 182 1111 z "},"}":{"ha":618,"x_min":0,"x_max":0,"o":"m 132 -396 l 133 -412 b 415 -167 288 -412 415 -326 b 332 194 415 -42 332 93 b 454 339 332 278 381 339 l 454 357 b 332 501 381 357 332 418 b 415 863 332 607 415 735 b 119 1106 415 1024 242 1106 l 119 1090 b 349 892 251 1086 349 1013 b 265 519 349 760 265 644 b 410 349 265 444 331 374 b 265 176 324 321 265 250 b 347 -196 265 51 347 -67 b 132 -396 347 -328 274 -390 z "},"~":{"ha":647,"x_min":0,"x_max":0,"o":"m 467 429 b 588 554 518 429 554 485 l 576 558 b 500 508 557 524 532 508 b 186 579 411 508 260 579 b 63 463 132 579 104 525 l 72 457 b 154 500 101 494 126 500 b 467 429 229 500 394 429 z "},"¡":{"ha":251,"x_min":0,"x_max":0,"o":"m 90 488 l 74 488 l 18 -250 l 26 -256 l 153 -179 z m 82 718 b 11 643 43 718 11 683 b 82 569 11 603 43 569 b 154 643 121 569 154 603 b 82 718 154 683 121 718 z "},"¢":{"ha":735,"x_min":0,"x_max":0,"o":"m 379 -181 l 401 -181 l 401 125 b 697 299 547 128 636 217 l 683 310 b 453 208 626 238 539 208 b 401 213 435 208 418 210 l 401 819 b 629 663 547 807 575 663 b 683 733 660 663 683 701 b 426 843 683 783 588 843 b 401 842 418 843 410 843 l 401 1111 l 379 1111 l 379 840 b 46 468 194 818 46 664 b 379 125 46 253 207 132 z m 154 531 b 379 819 154 681 231 817 l 379 215 b 154 531 243 244 154 356 z "},"£":{"ha":890,"x_min":0,"x_max":0,"o":"m 610 -37 b 861 179 718 -37 804 74 l 850 185 b 628 75 797 108 735 75 b 257 122 508 75 393 99 b 358 447 296 206 335 333 l 646 447 l 656 467 l 363 467 b 376 546 368 494 372 521 b 567 950 408 779 432 950 b 760 836 668 950 700 836 b 808 901 783 836 808 863 b 626 982 808 957 696 982 b 269 532 421 982 293 793 l 264 467 l 75 467 l 65 447 l 263 447 b 232 126 254 342 242 192 b 143 136 178 135 158 136 b 47 61 79 136 47 101 b 124 -4 47 17 82 -4 b 231 71 169 -4 201 24 b 247 100 236 79 242 89 b 610 -37 351 74 485 -37 z "},"¥":{"ha":725,"x_min":0,"x_max":0,"o":"m 79 433 l 317 433 l 317 263 l 88 263 l 79 243 l 317 243 l 317 176 b 263 18 318 63 304 31 l 263 0 l 489 0 l 489 18 b 433 176 446 31 433 63 l 433 243 l 646 243 l 654 263 l 433 263 l 433 433 l 646 433 l 654 453 l 440 453 l 646 818 b 782 954 701 917 744 942 l 782 972 l 617 972 l 617 954 b 621 818 669 944 668 903 l 426 474 l 233 818 b 203 954 178 917 161 942 l 203 972 l -17 972 l -17 954 b 107 818 13 942 53 917 l 308 453 l 88 453 z "},"¦":{"ha":371,"x_min":0,"x_max":0,"o":"m 182 458 l 204 458 l 204 1111 l 182 1111 z m 182 -375 l 204 -375 l 204 278 l 182 278 z "},"§":{"ha":782,"x_min":0,"x_max":0,"o":"m 328 -264 b 554 -83 451 -264 539 -190 b 713 157 635 -36 713 49 b 481 532 713 285 575 431 b 285 846 388 635 285 749 b 382 947 285 914 332 947 b 571 811 492 947 517 811 b 621 879 596 811 621 840 b 436 976 621 935 518 976 b 217 794 328 976 226 914 b 65 564 121 738 65 667 b 286 192 65 438 192 297 b 485 -126 379 89 485 -29 b 381 -235 485 -197 438 -236 b 190 -94 268 -232 244 -94 b 140 -162 164 -94 140 -124 b 328 -264 140 -217 246 -264 z m 133 640 b 215 772 133 699 167 742 b 425 428 215 664 331 536 b 635 81 525 314 635 182 b 557 -62 635 14 600 -31 l 557 -50 b 340 303 557 65 431 201 b 133 640 253 399 133 533 z "},"©":{"ha":1133,"x_min":0,"x_max":0,"o":"m 538 -18 b 1075 500 794 -18 1075 185 b 594 975 1075 792 849 975 b 57 458 329 975 57 750 b 538 -18 57 176 271 -18 z m 571 13 b 107 474 310 13 107 213 b 565 946 107 743 308 946 b 1025 488 821 946 1025 756 b 571 13 1025 215 829 13 z m 564 188 b 831 378 692 188 781 265 l 819 383 b 604 256 764 288 689 256 b 374 510 469 256 371 356 b 579 742 375 644 450 742 b 775 622 660 742 735 704 l 785 624 l 772 732 b 618 768 747 747 682 768 b 288 464 449 768 288 658 b 564 188 288 296 410 188 z "},"ª":{"ha":640,"x_min":0,"x_max":0,"o":"m 465 482 b 565 538 492 482 522 499 l 556 549 b 514 526 539 533 525 526 b 489 578 490 526 489 554 l 489 807 b 321 981 489 917 433 981 b 115 886 244 981 172 935 l 126 874 b 282 943 176 917 228 943 b 404 815 357 943 399 906 l 282 782 b 78 606 144 743 78 689 b 207 482 78 529 138 482 b 404 599 282 482 350 535 l 404 560 b 465 482 404 506 424 482 z m 78 340 l 546 340 l 546 360 l 78 360 z m 163 636 b 286 764 163 696 197 739 l 404 799 l 404 621 b 263 538 360 565 307 538 b 163 636 199 538 163 579 z "},"«":{"ha":764,"x_min":0,"x_max":0,"o":"m 444 33 l 458 50 l 110 347 l 458 644 l 444 661 l 76 347 z m 681 33 l 694 50 l 346 347 l 694 644 l 681 661 l 313 347 z "},"®":{"ha":1117,"x_min":0,"x_max":0,"o":"m 538 -18 b 1075 500 794 -18 1075 185 b 594 975 1075 792 849 975 b 57 458 329 975 57 750 b 538 -18 57 176 271 -18 z m 351 206 l 499 206 l 499 215 b 467 308 475 224 467 243 l 467 418 l 481 418 l 483 418 b 621 315 563 417 582 385 l 640 281 b 746 206 667 233 696 206 l 810 206 l 810 213 b 726 289 779 221 746 253 l 707 325 b 550 422 674 388 619 414 b 761 613 697 443 761 528 b 489 775 761 719 667 775 l 351 775 l 351 765 b 383 672 376 757 383 738 l 383 308 b 351 215 383 243 376 224 z m 571 13 b 107 474 310 13 107 213 b 565 946 107 743 308 946 b 1025 488 821 946 1025 756 b 571 13 1025 215 829 13 z m 467 432 l 467 761 l 489 761 b 683 606 639 761 683 700 b 485 432 683 517 647 432 z "},"°":{"ha":504,"x_min":0,"x_max":0,"o":"m 254 593 b 449 788 361 593 449 681 b 254 982 449 894 360 982 b 60 788 147 982 60 894 b 254 593 60 681 147 593 z m 254 613 b 82 788 157 613 82 688 b 254 963 82 888 157 963 b 426 788 351 963 426 888 b 254 613 426 688 351 613 z "},"±":{"ha":775,"x_min":0,"x_max":0,"o":"m 140 632 l 378 632 l 378 442 l 397 450 l 397 632 l 624 632 l 632 651 l 397 651 l 397 850 l 378 842 l 378 651 l 149 651 z m 140 271 l 624 271 l 632 290 l 149 290 z "},"²":{"ha":488,"x_min":0,"x_max":0,"o":"m 7 351 l 7 336 l 421 336 l 435 476 l 421 478 b 296 401 403 417 385 401 l 86 401 b 414 835 204 501 415 671 b 250 985 413 931 332 985 b 64 906 174 985 118 951 l 74 892 b 211 947 121 932 167 947 b 317 822 275 947 317 908 b 7 351 317 649 131 471 z "},"³":{"ha":478,"x_min":0,"x_max":0,"o":"m 43 222 l 51 206 b 418 585 250 310 418 431 b 261 721 418 689 324 721 b 238 719 253 721 244 721 b 365 868 313 757 365 790 b 231 985 365 931 313 985 b 53 910 167 985 107 956 l 64 896 b 192 949 110 936 157 949 b 279 854 244 947 279 911 b 146 693 279 782 243 738 l 153 676 b 218 696 176 692 197 696 b 324 569 271 696 324 672 b 43 222 324 456 218 311 z "},"¶":{"ha":894,"x_min":0,"x_max":0,"o":"m 461 -222 l 482 -222 l 482 914 l 646 914 b 697 803 690 914 697 894 l 697 -222 l 718 -222 l 718 757 b 774 915 718 871 731 903 l 774 933 l 388 933 b 119 714 214 933 119 857 b 393 490 119 576 225 490 l 461 490 z "},"·":{"ha":303,"x_min":0,"x_max":0,"o":"m 151 290 b 222 365 190 290 222 325 b 151 439 222 406 190 439 b 79 365 113 439 79 406 b 151 290 79 325 113 290 z "},"¹":{"ha":324,"x_min":0,"x_max":0,"o":"m 69 336 l 244 336 l 244 347 b 201 451 211 356 201 378 l 201 983 l 183 983 l 35 878 l 42 864 l 113 900 l 113 451 b 69 347 113 378 103 356 z "},"º":{"ha":657,"x_min":0,"x_max":0,"o":"m 329 482 b 582 736 443 482 582 571 b 329 981 582 907 449 981 b 76 726 197 981 76 876 b 329 482 76 558 207 482 z m 108 340 l 576 340 l 576 360 l 108 360 z m 358 507 b 164 781 232 507 164 660 b 294 958 164 875 200 954 b 492 681 418 965 492 803 b 358 507 492 588 456 507 z "},"»":{"ha":764,"x_min":0,"x_max":0,"o":"m 328 33 l 696 347 l 328 661 l 314 644 l 663 347 l 314 50 z m 92 33 l 460 347 l 92 661 l 78 644 l 426 347 l 78 50 z "},"¿":{"ha":544,"x_min":0,"x_max":0,"o":"m 318 483 l 228 435 l 236 179 b 18 -94 124 121 18 33 b 229 -287 18 -219 117 -287 b 517 -89 369 -287 468 -197 l 499 -81 b 286 -231 456 -176 375 -231 b 126 -64 208 -231 126 -183 b 328 207 126 22 171 129 l 326 479 z m 279 704 b 208 629 240 704 208 669 b 279 556 208 589 240 556 b 351 629 318 556 351 589 b 279 704 351 669 318 704 z "},"À":{"ha":890,"x_min":0,"x_max":0,"o":"m -24 0 l 133 0 l 133 18 b 117 164 86 28 81 74 l 199 367 l 590 367 l 675 163 b 688 18 719 58 731 31 l 688 0 l 903 0 l 903 18 b 797 163 874 31 840 58 l 456 983 l 351 936 l 364 907 b 367 842 375 885 376 867 l 93 164 b -24 18 50 58 15 31 z m 313 1107 l 533 1035 l 539 1043 l 400 1156 b 340 1186 368 1182 357 1186 b 269 1144 311 1186 269 1163 b 313 1107 269 1129 276 1118 z m 207 388 l 392 844 l 582 388 z "},"Á":{"ha":890,"x_min":0,"x_max":0,"o":"m -24 0 l 133 0 l 133 18 b 117 164 86 28 81 74 l 199 367 l 590 367 l 675 163 b 688 18 719 58 731 31 l 688 0 l 903 0 l 903 18 b 797 163 874 31 840 58 l 456 983 l 351 936 l 364 907 b 367 842 375 885 376 867 l 93 164 b -24 18 50 58 15 31 z m 522 1107 b 565 1144 558 1118 565 1129 b 494 1186 565 1163 524 1186 b 435 1156 478 1186 467 1182 l 296 1043 l 301 1035 z m 207 388 l 392 844 l 582 388 z "},"Â":{"ha":890,"x_min":0,"x_max":0,"o":"m -24 0 l 133 0 l 133 18 b 117 164 86 28 81 74 l 199 367 l 590 367 l 675 163 b 688 18 719 58 731 31 l 688 0 l 903 0 l 903 18 b 797 163 874 31 840 58 l 456 983 l 351 936 l 364 907 b 367 842 375 885 376 867 l 93 164 b -24 18 50 58 15 31 z m 283 1033 l 428 1104 l 581 1033 l 590 1044 l 432 1199 l 424 1199 l 274 1043 z m 207 388 l 392 844 l 582 388 z "},"Ã":{"ha":890,"x_min":0,"x_max":0,"o":"m -24 0 l 133 0 l 133 18 b 117 164 86 28 81 74 l 199 367 l 590 367 l 675 163 b 688 18 719 58 731 31 l 688 0 l 903 0 l 903 18 b 797 163 874 31 840 58 l 456 983 l 351 936 l 364 907 b 367 842 375 885 376 867 l 93 164 b -24 18 50 58 15 31 z m 232 1054 l 244 1049 b 319 1110 265 1092 286 1110 b 513 1049 386 1110 444 1049 b 646 1192 568 1049 611 1101 l 633 1196 b 558 1125 611 1144 593 1125 b 364 1185 503 1125 417 1185 b 232 1054 310 1185 271 1135 z m 207 388 l 392 844 l 582 388 z "},"Ä":{"ha":890,"x_min":0,"x_max":0,"o":"m -24 0 l 133 0 l 133 18 b 117 164 86 28 81 74 l 199 367 l 590 367 l 675 163 b 688 18 719 58 731 31 l 688 0 l 903 0 l 903 18 b 797 163 874 31 840 58 l 456 983 l 351 936 l 364 907 b 367 842 375 885 376 867 l 93 164 b -24 18 50 58 15 31 z m 550 1079 b 613 1142 585 1079 613 1106 b 550 1206 613 1178 585 1206 b 485 1144 513 1206 485 1178 b 550 1079 485 1106 513 1079 z m 314 1079 b 378 1142 350 1079 378 1106 b 314 1206 378 1178 351 1206 b 250 1144 278 1206 250 1178 b 314 1079 250 1106 278 1079 z m 207 388 l 392 844 l 582 388 z "},"Å":{"ha":890,"x_min":0,"x_max":0,"o":"m -24 0 l 133 0 l 133 18 b 117 164 86 28 81 74 l 199 367 l 590 367 l 675 163 b 688 18 719 58 731 31 l 688 0 l 903 0 l 903 18 b 797 163 874 31 840 58 l 456 983 l 351 936 l 364 907 b 367 842 375 885 376 867 l 93 164 b -24 18 50 58 15 31 z m 431 1039 b 528 1135 488 1039 528 1082 b 431 1229 528 1188 493 1229 b 336 1132 375 1229 336 1186 b 431 1039 336 1081 375 1039 z m 431 1053 b 353 1132 386 1053 353 1086 b 431 1215 353 1182 386 1215 b 511 1135 478 1215 511 1182 b 431 1053 511 1088 476 1053 z m 207 388 l 392 844 l 582 388 z "},"Æ":{"ha":1110,"x_min":0,"x_max":0,"o":"m -24 0 l 133 0 l 133 18 b 118 163 85 28 82 74 l 188 331 l 563 331 l 607 169 b 599 18 638 61 642 31 l 599 0 l 1049 0 l 1057 158 l 1042 160 b 825 22 993 56 940 22 b 749 85 788 22 763 35 l 628 513 l 696 513 b 911 418 854 513 893 479 l 928 418 l 928 629 l 911 629 b 696 535 893 567 854 535 l 622 535 l 506 950 l 696 950 b 943 822 836 950 901 914 l 958 825 l 943 972 l 426 972 l 94 163 b -24 18 51 58 15 31 z m 196 351 l 414 879 l 557 351 z "},"Ç":{"ha":1029,"x_min":0,"x_max":0,"o":"m 594 -14 b 949 61 751 -14 883 25 l 971 242 l 956 243 b 635 14 901 93 785 14 b 189 525 346 14 188 264 b 581 956 189 808 360 956 b 932 744 746 956 878 871 l 946 747 l 940 913 b 628 982 886 947 747 982 b 72 467 301 982 72 763 b 575 -14 72 171 268 -6 l 481 -137 l 488 -146 b 553 -133 517 -137 529 -133 b 663 -203 631 -133 663 -167 b 589 -268 663 -239 632 -268 b 479 -224 535 -268 513 -224 b 433 -257 460 -224 433 -240 b 522 -303 433 -279 469 -303 b 708 -158 615 -303 708 -233 b 544 -81 708 -103 657 -61 z "},"È":{"ha":818,"x_min":0,"x_max":0,"o":"m 756 0 l 767 185 l 751 188 b 483 21 701 58 617 21 l 303 21 b 240 83 263 21 240 43 l 240 510 l 418 510 b 633 415 576 510 617 478 l 650 415 l 650 625 l 633 625 b 418 531 617 563 576 531 l 240 531 l 240 951 l 444 951 b 717 788 586 951 668 910 l 732 792 l 717 972 l 71 972 l 71 954 b 126 796 113 942 126 910 l 126 176 b 71 18 126 63 113 31 l 71 0 z m 281 1107 l 501 1035 l 507 1043 l 368 1156 b 308 1186 336 1182 325 1186 b 238 1144 279 1186 238 1163 b 281 1107 238 1129 244 1118 z "},"É":{"ha":818,"x_min":0,"x_max":0,"o":"m 756 0 l 767 185 l 751 188 b 483 21 701 58 617 21 l 303 21 b 240 83 263 21 240 43 l 240 510 l 418 510 b 633 415 576 510 617 478 l 650 415 l 650 625 l 633 625 b 418 531 617 563 576 531 l 240 531 l 240 951 l 444 951 b 717 788 586 951 668 910 l 732 792 l 717 972 l 71 972 l 71 954 b 126 796 113 942 126 910 l 126 176 b 71 18 126 63 113 31 l 71 0 z m 490 1107 b 533 1144 526 1118 533 1129 b 463 1186 533 1163 492 1186 b 403 1156 446 1186 435 1182 l 264 1043 l 269 1035 z "},"Ê":{"ha":818,"x_min":0,"x_max":0,"o":"m 756 0 l 767 185 l 751 188 b 483 21 701 58 617 21 l 303 21 b 240 83 263 21 240 43 l 240 510 l 418 510 b 633 415 576 510 617 478 l 650 415 l 650 625 l 633 625 b 418 531 617 563 576 531 l 240 531 l 240 951 l 444 951 b 717 788 586 951 668 910 l 732 792 l 717 972 l 71 972 l 71 954 b 126 796 113 942 126 910 l 126 176 b 71 18 126 63 113 31 l 71 0 z m 251 1033 l 396 1104 l 549 1033 l 558 1044 l 400 1199 l 392 1199 l 242 1043 z "},"Ë":{"ha":818,"x_min":0,"x_max":0,"o":"m 756 0 l 767 185 l 751 188 b 483 21 701 58 617 21 l 303 21 b 240 83 263 21 240 43 l 240 510 l 418 510 b 633 415 576 510 617 478 l 650 415 l 650 625 l 633 625 b 418 531 617 563 576 531 l 240 531 l 240 951 l 444 951 b 717 788 586 951 668 910 l 732 792 l 717 972 l 71 972 l 71 954 b 126 796 113 942 126 910 l 126 176 b 71 18 126 63 113 31 l 71 0 z m 519 1079 b 582 1142 554 1079 582 1106 b 519 1206 582 1178 554 1206 b 454 1144 482 1206 454 1178 b 519 1079 454 1106 482 1079 z m 283 1079 b 347 1142 319 1079 347 1106 b 283 1206 347 1178 321 1206 b 219 1144 247 1206 219 1178 b 283 1079 219 1106 247 1079 z "},"Ì":{"ha":367,"x_min":0,"x_max":0,"o":"m 71 0 l 296 0 l 296 18 b 240 176 253 31 240 63 l 240 796 b 296 954 240 910 253 942 l 296 972 l 71 972 l 71 954 b 126 796 113 942 126 910 l 126 176 b 71 18 126 63 113 31 z m 64 1107 l 285 1035 l 290 1043 l 151 1156 b 92 1186 119 1182 108 1186 b 21 1144 63 1186 21 1163 b 64 1107 21 1129 28 1118 z "},"Í":{"ha":367,"x_min":0,"x_max":0,"o":"m 71 0 l 296 0 l 296 18 b 240 176 253 31 240 63 l 240 796 b 296 954 240 910 253 942 l 296 972 l 71 972 l 71 954 b 126 796 113 942 126 910 l 126 176 b 71 18 126 63 113 31 z m 274 1107 b 317 1144 310 1118 317 1129 b 246 1186 317 1163 275 1186 b 186 1156 229 1186 218 1182 l 47 1043 l 53 1035 z "},"Î":{"ha":367,"x_min":0,"x_max":0,"o":"m 71 0 l 296 0 l 296 18 b 240 176 253 31 240 63 l 240 796 b 296 954 240 910 253 942 l 296 972 l 71 972 l 71 954 b 126 796 113 942 126 910 l 126 176 b 71 18 126 63 113 31 z m 35 1033 l 179 1104 l 332 1033 l 342 1044 l 183 1199 l 175 1199 l 25 1043 z "},"Ï":{"ha":367,"x_min":0,"x_max":0,"o":"m 71 0 l 296 0 l 296 18 b 240 176 253 31 240 63 l 240 796 b 296 954 240 910 253 942 l 296 972 l 71 972 l 71 954 b 126 796 113 942 126 910 l 126 176 b 71 18 126 63 113 31 z m 301 1079 b 364 1142 336 1079 364 1106 b 301 1206 364 1178 336 1206 b 236 1144 264 1206 236 1178 b 301 1079 236 1106 264 1079 z m 65 1079 b 129 1142 101 1079 129 1106 b 65 1206 129 1178 103 1206 b 1 1144 29 1206 1 1178 b 65 1079 1 1106 29 1079 z "},"Ð":{"ha":1007,"x_min":0,"x_max":0,"o":"m 435 0 b 936 504 740 0 938 211 b 403 972 935 729 785 972 l 71 972 l 71 954 b 126 796 113 942 126 910 l 126 176 b 71 18 126 63 113 31 l 71 0 z m 432 21 l 331 21 b 240 122 254 21 240 57 l 240 951 l 335 951 b 810 449 644 951 810 726 b 432 21 810 158 675 21 z m 50 539 l 388 539 z "},"Ñ":{"ha":933,"x_min":0,"x_max":0,"o":"m 804 -11 l 822 -11 l 822 796 b 878 954 822 910 835 942 l 878 972 l 703 972 l 703 954 b 799 740 765 938 799 899 l 799 186 l 192 972 l 56 972 l 56 954 b 128 796 111 942 128 910 l 128 176 b 72 18 128 63 114 31 l 72 0 l 246 0 l 246 18 b 150 232 183 35 150 74 l 150 840 z m 275 1054 l 288 1049 b 363 1110 308 1092 329 1110 b 556 1049 429 1110 488 1049 b 689 1192 611 1049 654 1101 l 676 1196 b 601 1125 654 1144 636 1125 b 407 1185 546 1125 460 1185 b 275 1054 353 1185 314 1135 z "},"Ò":{"ha":1129,"x_min":0,"x_max":0,"o":"m 567 -14 b 1058 482 800 -14 1058 139 b 567 983 1058 822 801 983 b 72 488 272 983 72 772 b 567 -14 72 143 331 -14 z m 625 21 b 183 568 376 21 193 289 b 510 951 175 794 299 951 b 950 390 758 951 940 681 b 625 21 957 182 847 21 z m 435 1107 l 656 1035 l 661 1043 l 522 1156 b 463 1186 490 1182 479 1186 b 392 1144 433 1186 392 1163 b 435 1107 392 1129 399 1118 z "},"Ó":{"ha":1129,"x_min":0,"x_max":0,"o":"m 567 -14 b 1058 482 800 -14 1058 139 b 567 983 1058 822 801 983 b 72 488 272 983 72 772 b 567 -14 72 143 331 -14 z m 625 21 b 183 568 376 21 193 289 b 510 951 175 794 299 951 b 950 390 758 951 940 681 b 625 21 957 182 847 21 z m 644 1107 b 688 1144 681 1118 688 1129 b 617 1186 688 1163 646 1186 b 557 1156 600 1186 589 1182 l 418 1043 l 424 1035 z "},"Ô":{"ha":1129,"x_min":0,"x_max":0,"o":"m 567 -14 b 1058 482 800 -14 1058 139 b 567 983 1058 822 801 983 b 72 488 272 983 72 772 b 567 -14 72 143 331 -14 z m 625 21 b 183 568 376 21 193 289 b 510 951 175 794 299 951 b 950 390 758 951 940 681 b 625 21 957 182 847 21 z m 406 1033 l 550 1104 l 703 1033 l 713 1044 l 554 1199 l 546 1199 l 396 1043 z "},"Õ":{"ha":1129,"x_min":0,"x_max":0,"o":"m 567 -14 b 1058 482 800 -14 1058 139 b 567 983 1058 822 801 983 b 72 488 272 983 72 772 b 567 -14 72 143 331 -14 z m 625 21 b 183 568 376 21 193 289 b 510 951 175 794 299 951 b 950 390 758 951 940 681 b 625 21 957 182 847 21 z m 354 1054 l 367 1049 b 442 1110 388 1092 408 1110 b 635 1049 508 1110 567 1049 b 768 1192 690 1049 733 1101 l 756 1196 b 681 1125 733 1144 715 1125 b 486 1185 625 1125 539 1185 b 354 1054 432 1185 393 1135 z "},"Ö":{"ha":1129,"x_min":0,"x_max":0,"o":"m 567 -14 b 1058 482 800 -14 1058 139 b 567 983 1058 822 801 983 b 72 488 272 983 72 772 b 567 -14 72 143 331 -14 z m 625 21 b 183 568 376 21 193 289 b 510 951 175 794 299 951 b 950 390 758 951 940 681 b 625 21 957 182 847 21 z m 672 1079 b 735 1142 707 1079 735 1106 b 672 1206 735 1178 707 1206 b 607 1144 635 1206 607 1178 b 672 1079 607 1106 635 1079 z m 436 1079 b 500 1142 472 1079 500 1106 b 436 1206 500 1178 474 1206 b 372 1144 400 1206 372 1178 b 436 1079 372 1106 400 1079 z "},"×":{"ha":775,"x_min":0,"x_max":0,"o":"m 404 260 l 608 457 l 599 465 l 606 472 l 400 668 l 397 665 l 392 669 l 188 471 l 194 465 l 185 456 l 389 260 l 396 267 z "},"Ø":{"ha":1129,"x_min":0,"x_max":0,"o":"m 567 -14 b 1058 482 800 -14 1058 139 b 567 983 1058 822 801 983 b 72 488 272 983 72 772 b 567 -14 72 143 331 -14 z m 625 21 b 183 568 376 21 193 289 b 510 951 175 794 299 951 b 950 390 758 951 940 681 b 625 21 957 182 847 21 z m 146 -149 l 960 1111 z "},"Ù":{"ha":943,"x_min":0,"x_max":0,"o":"m 501 -14 b 847 371 694 -14 847 92 l 847 796 b 903 954 847 910 861 942 l 903 972 l 731 972 l 731 954 b 825 740 792 938 825 899 l 825 367 b 546 15 825 94 665 15 b 222 367 365 15 222 108 l 222 796 b 278 954 222 910 236 942 l 278 972 l 53 972 l 53 954 b 108 796 96 942 108 910 l 108 358 b 501 -14 108 79 303 -14 z m 389 1107 l 610 1035 l 615 1043 l 476 1156 b 417 1186 444 1182 433 1186 b 346 1144 388 1186 346 1163 b 389 1107 346 1129 353 1118 z "},"Ú":{"ha":943,"x_min":0,"x_max":0,"o":"m 501 -14 b 847 371 694 -14 847 92 l 847 796 b 903 954 847 910 861 942 l 903 972 l 731 972 l 731 954 b 825 740 792 938 825 899 l 825 367 b 546 15 825 94 665 15 b 222 367 365 15 222 108 l 222 796 b 278 954 222 910 236 942 l 278 972 l 53 972 l 53 954 b 108 796 96 942 108 910 l 108 358 b 501 -14 108 79 303 -14 z m 599 1107 b 642 1144 635 1118 642 1129 b 571 1186 642 1163 600 1186 b 511 1156 554 1186 543 1182 l 372 1043 l 378 1035 z "},"Û":{"ha":943,"x_min":0,"x_max":0,"o":"m 501 -14 b 847 371 694 -14 847 92 l 847 796 b 903 954 847 910 861 942 l 903 972 l 731 972 l 731 954 b 825 740 792 938 825 899 l 825 367 b 546 15 825 94 665 15 b 222 367 365 15 222 108 l 222 796 b 278 954 222 910 236 942 l 278 972 l 53 972 l 53 954 b 108 796 96 942 108 910 l 108 358 b 501 -14 108 79 303 -14 z m 360 1033 l 504 1104 l 657 1033 l 667 1044 l 508 1199 l 500 1199 l 350 1043 z "},"Ü":{"ha":943,"x_min":0,"x_max":0,"o":"m 501 -14 b 847 371 694 -14 847 92 l 847 796 b 903 954 847 910 861 942 l 903 972 l 731 972 l 731 954 b 825 740 792 938 825 899 l 825 367 b 546 15 825 94 665 15 b 222 367 365 15 222 108 l 222 796 b 278 954 222 910 236 942 l 278 972 l 53 972 l 53 954 b 108 796 96 942 108 910 l 108 358 b 501 -14 108 79 303 -14 z m 628 1079 b 690 1142 663 1079 690 1106 b 628 1206 690 1178 663 1206 b 563 1144 590 1206 563 1178 b 628 1079 563 1106 590 1079 z m 392 1079 b 456 1142 428 1079 456 1106 b 392 1206 456 1178 429 1206 b 328 1144 356 1206 328 1178 b 392 1079 328 1106 356 1079 z "},"Ý":{"ha":764,"x_min":0,"x_max":0,"o":"m 263 0 l 489 0 l 489 18 b 433 176 446 31 433 63 l 433 440 l 646 818 b 782 954 701 917 744 942 l 782 972 l 617 972 l 617 954 b 621 818 669 944 668 903 l 426 474 l 233 818 b 203 954 178 917 161 942 l 203 972 l -17 972 l -17 954 b 107 818 13 942 53 917 l 317 438 l 317 176 b 263 18 318 63 304 31 z m 471 1107 b 514 1144 507 1118 514 1129 b 443 1186 514 1163 472 1186 b 383 1156 426 1186 415 1182 l 244 1043 l 250 1035 z "},"Þ":{"ha":800,"x_min":0,"x_max":0,"o":"m 71 0 l 296 0 l 296 18 b 240 176 253 31 240 63 l 240 231 l 322 231 b 765 557 628 231 765 367 b 383 819 765 694 689 819 l 240 819 b 296 954 242 914 256 943 l 296 972 l 71 972 l 71 954 b 126 796 113 942 126 910 l 126 176 b 71 18 126 63 113 31 z m 240 254 l 240 796 l 240 797 l 318 797 b 647 540 574 797 647 681 b 324 254 647 365 542 254 z "},"ß":{"ha":831,"x_min":0,"x_max":0,"o":"m 568 -11 b 804 215 690 -11 804 78 b 438 589 804 433 438 429 b 681 949 438 717 681 772 b 494 1081 681 1025 613 1082 b 104 694 321 1079 117 926 l 44 694 l 36 676 l 104 676 l 104 672 l 104 176 b 49 18 104 63 90 31 l 49 0 l 268 0 l 268 18 b 213 176 225 31 213 63 l 213 742 b 436 1040 213 969 314 1040 b 596 904 533 1040 596 990 b 378 510 594 743 378 678 b 728 146 378 318 728 346 b 582 11 728 68 674 13 b 333 193 476 8 394 72 l 319 190 l 326 43 b 568 -11 382 13 468 -11 z "},"à":{"ha":736,"x_min":0,"x_max":0,"o":"m 582 0 l 703 0 l 703 18 b 647 176 660 31 647 63 l 647 454 b 401 704 647 611 569 704 b 100 546 281 704 179 644 l 113 535 b 346 658 182 619 263 658 b 540 461 464 658 533 596 l 360 413 b 49 168 194 367 49 313 b 243 -14 49 49 140 -14 b 540 292 381 -14 497 121 l 540 42 b 582 0 540 15 554 0 z m 293 904 l 514 804 l 519 814 l 379 953 b 321 985 350 982 338 985 b 251 944 292 985 251 961 b 293 904 251 929 261 919 z m 153 207 b 365 396 151 321 263 367 l 540 443 l 540 440 l 540 401 b 294 68 539 256 443 68 b 153 207 215 68 153 117 z "},"á":{"ha":736,"x_min":0,"x_max":0,"o":"m 582 0 l 703 0 l 703 18 b 647 176 660 31 647 63 l 647 454 b 401 704 647 611 569 704 b 100 546 281 704 179 644 l 113 535 b 346 658 182 619 263 658 b 540 461 464 658 533 596 l 360 413 b 49 168 194 367 49 313 b 243 -14 49 49 140 -14 b 540 292 381 -14 497 121 l 540 42 b 582 0 540 15 554 0 z m 532 904 b 574 944 564 919 574 929 b 504 985 574 961 533 985 b 446 953 488 985 475 982 l 306 814 l 311 804 z m 153 207 b 365 396 151 321 263 367 l 540 443 l 540 440 l 540 401 b 294 68 539 256 443 68 b 153 207 215 68 153 117 z "},"â":{"ha":736,"x_min":0,"x_max":0,"o":"m 582 0 l 703 0 l 703 18 b 647 176 660 31 647 63 l 647 454 b 401 704 647 611 569 704 b 100 546 281 704 179 644 l 113 535 b 346 658 182 619 263 658 b 540 461 464 658 533 596 l 360 413 b 49 168 194 367 49 313 b 243 -14 49 49 140 -14 b 540 292 381 -14 497 121 l 540 42 b 582 0 540 15 554 0 z m 249 800 l 408 894 l 575 800 l 586 811 l 413 990 l 404 990 l 238 810 z m 153 207 b 365 396 151 321 263 367 l 540 443 l 540 440 l 540 401 b 294 68 539 256 443 68 b 153 207 215 68 153 117 z "},"ã":{"ha":736,"x_min":0,"x_max":0,"o":"m 582 0 l 703 0 l 703 18 b 647 176 660 31 647 63 l 647 454 b 401 704 647 611 569 704 b 100 546 281 704 179 644 l 113 535 b 346 658 182 619 263 658 b 540 461 464 658 533 596 l 360 413 b 49 168 194 367 49 313 b 243 -14 49 49 140 -14 b 540 292 381 -14 497 121 l 540 42 b 582 0 540 15 554 0 z m 213 776 l 225 771 b 300 832 246 814 267 832 b 493 771 367 832 425 771 b 626 914 549 771 592 824 l 614 918 b 539 847 592 867 574 847 b 344 907 483 847 397 907 b 213 776 290 907 251 857 z m 153 207 b 365 396 151 321 263 367 l 540 443 l 540 440 l 540 401 b 294 68 539 256 443 68 b 153 207 215 68 153 117 z "},"ä":{"ha":736,"x_min":0,"x_max":0,"o":"m 582 0 l 703 0 l 703 18 b 647 176 660 31 647 63 l 647 454 b 401 704 647 611 569 704 b 100 546 281 704 179 644 l 113 535 b 346 658 182 619 263 658 b 540 461 464 658 533 596 l 360 413 b 49 168 194 367 49 313 b 243 -14 49 49 140 -14 b 540 292 381 -14 497 121 l 540 42 b 582 0 540 15 554 0 z m 532 801 b 594 864 567 801 594 828 b 532 928 594 900 567 928 b 467 867 494 928 467 900 b 532 801 467 828 494 801 z m 296 801 b 360 864 332 801 360 828 b 296 928 360 900 333 928 b 232 867 260 928 232 900 b 296 801 232 828 260 801 z m 153 207 b 365 396 151 321 263 367 l 540 443 l 540 440 l 540 401 b 294 68 539 256 443 68 b 153 207 215 68 153 117 z "},"å":{"ha":736,"x_min":0,"x_max":0,"o":"m 582 0 l 703 0 l 703 18 b 647 176 660 31 647 63 l 647 454 b 401 704 647 611 569 704 b 100 546 281 704 179 644 l 113 535 b 346 658 182 619 263 658 b 540 461 464 658 533 596 l 360 413 b 49 168 194 367 49 313 b 243 -14 49 49 140 -14 b 540 292 381 -14 497 121 l 540 42 b 582 0 540 15 554 0 z m 411 761 b 508 857 468 761 508 804 b 411 951 508 910 474 951 b 317 854 356 951 317 908 b 411 761 317 803 356 761 z m 411 775 b 333 854 367 775 333 808 b 411 938 333 904 367 938 b 492 857 458 938 492 904 b 411 775 492 810 457 775 z m 153 207 b 365 396 151 321 263 367 l 540 443 l 540 440 l 540 401 b 294 68 539 256 443 68 b 153 207 215 68 153 117 z "},"æ":{"ha":1217,"x_min":0,"x_max":0,"o":"m 243 -14 b 539 271 385 -14 499 122 b 864 -14 564 79 724 -14 b 1192 182 1013 -14 1121 85 l 1179 194 b 932 74 1115 122 1039 74 b 633 394 751 74 633 204 b 638 458 633 417 635 438 l 1181 458 b 900 704 1176 590 1075 704 b 614 567 788 704 682 653 b 401 704 589 654 525 704 b 100 546 281 704 179 644 l 113 535 b 346 658 182 619 263 658 b 539 460 464 658 533 596 l 360 413 b 49 168 194 367 49 313 b 243 -14 49 49 140 -14 z m 539 440 l 536 365 b 535 336 536 356 535 346 b 294 68 524 232 432 68 b 153 207 215 68 153 117 b 365 396 151 321 263 367 l 539 442 z m 642 476 b 854 679 664 593 736 681 b 1069 476 981 679 1056 569 z "},"ç":{"ha":735,"x_min":0,"x_max":0,"o":"m 379 -14 b 707 182 528 -14 636 85 l 694 194 b 447 74 631 122 554 74 b 149 394 267 74 149 204 b 365 682 149 544 236 660 b 576 554 476 594 542 554 b 664 629 621 554 664 597 b 428 704 664 667 561 704 b 50 326 225 704 50 546 b 342 -12 50 119 193 4 l 246 -137 l 253 -146 b 318 -133 282 -137 294 -133 b 428 -203 396 -133 428 -167 b 354 -268 428 -239 397 -268 b 244 -224 300 -268 278 -224 b 199 -257 225 -224 199 -240 b 288 -303 199 -279 235 -303 b 474 -158 381 -303 474 -233 b 310 -81 474 -103 422 -61 l 361 -14 z "},"è":{"ha":746,"x_min":0,"x_max":0,"o":"m 379 -14 b 707 182 528 -14 636 85 l 694 194 b 447 74 631 122 554 74 b 149 394 267 74 149 204 b 153 458 149 417 150 438 l 696 458 b 415 704 692 590 590 704 b 50 326 221 704 50 553 b 379 -14 50 97 226 -14 z m 267 904 l 488 804 l 493 814 l 353 953 b 294 985 324 982 311 985 b 225 944 265 985 225 961 b 267 904 225 929 235 919 z m 157 476 b 369 679 179 593 251 681 b 585 476 496 679 571 569 z "},"é":{"ha":746,"x_min":0,"x_max":0,"o":"m 379 -14 b 707 182 528 -14 636 85 l 694 194 b 447 74 631 122 554 74 b 149 394 267 74 149 204 b 153 458 149 417 150 438 l 696 458 b 415 704 692 590 590 704 b 50 326 221 704 50 553 b 379 -14 50 97 226 -14 z m 506 904 b 547 944 538 919 547 929 b 478 985 547 961 507 985 b 419 953 461 985 449 982 l 279 814 l 285 804 z m 157 476 b 369 679 179 593 251 681 b 585 476 496 679 571 569 z "},"ê":{"ha":746,"x_min":0,"x_max":0,"o":"m 379 -14 b 707 182 528 -14 636 85 l 694 194 b 447 74 631 122 554 74 b 149 394 267 74 149 204 b 153 458 149 417 150 438 l 696 458 b 415 704 692 590 590 704 b 50 326 221 704 50 553 b 379 -14 50 97 226 -14 z m 222 800 l 382 894 l 549 800 l 560 811 l 386 990 l 378 990 l 211 810 z m 157 476 b 369 679 179 593 251 681 b 585 476 496 679 571 569 z "},"ë":{"ha":746,"x_min":0,"x_max":0,"o":"m 379 -14 b 707 182 528 -14 636 85 l 694 194 b 447 74 631 122 554 74 b 149 394 267 74 149 204 b 153 458 149 417 150 438 l 696 458 b 415 704 692 590 590 704 b 50 326 221 704 50 553 b 379 -14 50 97 226 -14 z m 506 801 b 568 864 540 801 568 828 b 506 928 568 900 540 928 b 440 867 468 928 440 900 b 506 801 440 828 468 801 z m 269 801 b 333 864 306 801 333 828 b 269 928 333 900 307 928 b 206 867 233 928 206 900 b 269 801 206 828 233 801 z m 157 476 b 369 679 179 593 251 681 b 585 476 496 679 571 569 z "},"ì":{"ha":313,"x_min":0,"x_max":0,"o":"m 44 0 l 264 0 l 264 18 b 208 176 222 31 208 63 l 208 696 l 197 706 l 44 639 l 44 624 b 100 496 83 607 100 593 l 100 176 b 44 18 100 63 88 31 z m 26 904 l 247 804 l 253 814 l 113 953 b 54 985 83 982 71 985 b -15 944 25 985 -15 961 b 26 904 -15 929 -6 919 z "},"í":{"ha":313,"x_min":0,"x_max":0,"o":"m 44 0 l 264 0 l 264 18 b 208 176 222 31 208 63 l 208 696 l 197 706 l 44 639 l 44 624 b 100 496 83 607 100 593 l 100 176 b 44 18 100 63 88 31 z m 265 904 b 307 944 297 919 307 929 b 238 985 307 961 267 985 b 179 953 221 985 208 982 l 39 814 l 44 804 z "},"î":{"ha":313,"x_min":0,"x_max":0,"o":"m 44 0 l 264 0 l 264 18 b 208 176 222 31 208 63 l 208 696 l 197 706 l 44 639 l 44 624 b 100 496 83 607 100 593 l 100 176 b 44 18 100 63 88 31 z m -18 800 l 142 894 l 308 800 l 319 811 l 146 990 l 138 990 l -29 810 z "},"ï":{"ha":313,"x_min":0,"x_max":0,"o":"m 44 0 l 264 0 l 264 18 b 208 176 222 31 208 63 l 208 696 l 197 706 l 44 639 l 44 624 b 100 496 83 607 100 593 l 100 176 b 44 18 100 63 88 31 z m 265 801 b 328 864 300 801 328 828 b 265 928 328 900 300 928 b 200 867 228 928 200 900 b 265 801 200 828 228 801 z m 29 801 b 93 864 65 801 93 828 b 29 928 93 900 67 928 b -35 867 -7 928 -35 900 b 29 801 -35 828 -7 801 z "},"ð":{"ha":833,"x_min":0,"x_max":0,"o":"m 397 -14 b 774 429 581 -14 774 129 b 515 922 774 649 653 811 l 593 967 b 606 988 600 971 606 979 l 607 1006 l 604 1006 l 492 940 b 261 1074 413 1001 329 1044 l 251 1061 b 443 913 326 1021 390 969 l 311 836 b 299 815 304 832 300 824 l 297 799 l 299 797 l 461 892 b 608 629 536 806 583 711 b 414 703 558 675 489 703 b 43 331 239 704 43 571 b 397 -14 43 97 228 -14 z m 449 21 b 147 418 278 21 146 208 b 369 672 149 575 242 672 b 664 279 547 674 664 486 b 449 21 664 126 589 21 z "},"ñ":{"ha":811,"x_min":0,"x_max":0,"o":"m 44 0 l 264 0 l 264 18 b 208 176 222 31 208 63 l 208 554 b 431 658 279 613 354 658 b 614 435 553 658 614 579 l 614 176 b 558 18 614 63 601 31 l 558 0 l 778 0 l 778 18 b 722 176 735 31 722 63 l 722 463 b 503 704 722 625 639 704 b 208 576 396 704 289 642 l 208 696 l 197 706 l 44 639 l 44 624 b 100 496 83 607 100 593 l 100 176 b 44 18 100 63 88 31 z m 199 776 l 211 771 b 286 832 232 814 253 832 b 479 771 353 832 411 771 b 613 914 535 771 578 824 l 600 918 b 525 847 578 867 560 847 b 331 907 469 847 383 907 b 199 776 276 907 238 857 z "},"ò":{"ha":836,"x_min":0,"x_max":0,"o":"m 414 -14 b 776 351 578 -14 776 114 b 414 704 776 599 586 704 b 50 338 224 704 50 554 b 414 -14 50 96 238 -14 z m 456 15 b 157 417 271 15 157 240 b 363 678 157 556 221 672 b 671 269 544 688 671 449 b 456 15 671 135 604 15 z m 294 904 l 515 804 l 521 814 l 381 953 b 322 985 351 982 339 985 b 253 944 293 985 253 961 b 294 904 253 929 263 919 z "},"ó":{"ha":836,"x_min":0,"x_max":0,"o":"m 414 -14 b 776 351 578 -14 776 114 b 414 704 776 599 586 704 b 50 338 224 704 50 554 b 414 -14 50 96 238 -14 z m 456 15 b 157 417 271 15 157 240 b 363 678 157 556 221 672 b 671 269 544 688 671 449 b 456 15 671 135 604 15 z m 533 904 b 575 944 565 919 575 929 b 506 985 575 961 535 985 b 447 953 489 985 476 982 l 307 814 l 313 804 z "},"ô":{"ha":836,"x_min":0,"x_max":0,"o":"m 414 -14 b 776 351 578 -14 776 114 b 414 704 776 599 586 704 b 50 338 224 704 50 554 b 414 -14 50 96 238 -14 z m 456 15 b 157 417 271 15 157 240 b 363 678 157 556 221 672 b 671 269 544 688 671 449 b 456 15 671 135 604 15 z m 250 800 l 410 894 l 576 800 l 588 811 l 414 990 l 406 990 l 239 810 z "},"õ":{"ha":836,"x_min":0,"x_max":0,"o":"m 414 -14 b 776 351 578 -14 776 114 b 414 704 776 599 586 704 b 50 338 224 704 50 554 b 414 -14 50 96 238 -14 z m 456 15 b 157 417 271 15 157 240 b 363 678 157 556 221 672 b 671 269 544 688 671 449 b 456 15 671 135 604 15 z m 214 776 l 226 771 b 301 832 247 814 268 832 b 494 771 368 832 426 771 b 628 914 550 771 593 824 l 615 918 b 540 847 593 867 575 847 b 346 907 485 847 399 907 b 214 776 292 907 253 857 z "},"ö":{"ha":836,"x_min":0,"x_max":0,"o":"m 414 -14 b 776 351 578 -14 776 114 b 414 704 776 599 586 704 b 50 338 224 704 50 554 b 414 -14 50 96 238 -14 z m 456 15 b 157 417 271 15 157 240 b 363 678 157 556 221 672 b 671 269 544 688 671 449 b 456 15 671 135 604 15 z m 533 801 b 596 864 568 801 596 828 b 533 928 596 900 568 928 b 468 867 496 928 468 900 b 533 801 468 828 496 801 z m 297 801 b 361 864 333 801 361 828 b 297 928 361 900 335 928 b 233 867 261 928 233 900 b 297 801 233 828 261 801 z "},"÷":{"ha":775,"x_min":0,"x_max":0,"o":"m 140 454 l 624 454 l 632 474 l 149 474 z m 433 207 b 504 282 472 207 504 242 b 433 356 504 322 472 356 b 361 282 394 356 361 322 b 433 207 361 242 394 207 z m 433 572 b 504 647 472 572 504 607 b 433 721 504 688 472 721 b 361 647 394 721 361 688 b 433 572 361 607 394 572 z "},"ø":{"ha":836,"x_min":0,"x_max":0,"o":"m 414 -14 b 776 351 578 -14 776 114 b 414 704 776 599 586 704 b 50 338 224 704 50 554 b 414 -14 50 96 238 -14 z m 456 15 b 157 417 271 15 157 240 b 363 678 157 556 221 672 b 671 269 544 688 671 449 b 456 15 671 135 604 15 z m 103 -149 l 715 819 z "},"ù":{"ha":786,"x_min":0,"x_max":0,"o":"m 303 -14 b 574 126 407 -14 503 53 l 574 56 b 619 0 574 15 589 0 l 738 0 l 738 18 b 682 176 694 31 682 63 l 682 696 l 669 706 l 518 639 l 518 624 b 574 496 556 607 574 593 l 574 153 b 354 35 511 86 436 35 b 199 264 243 35 199 106 l 199 696 l 186 706 l 35 639 l 35 624 b 90 496 72 607 90 593 l 90 239 b 303 -14 90 79 157 -14 z m 301 904 l 522 804 l 528 814 l 388 953 b 329 985 358 982 346 985 b 260 944 300 985 260 961 b 301 904 260 929 269 919 z "},"ú":{"ha":786,"x_min":0,"x_max":0,"o":"m 303 -14 b 574 126 407 -14 503 53 l 574 56 b 619 0 574 15 589 0 l 738 0 l 738 18 b 682 176 694 31 682 63 l 682 696 l 669 706 l 518 639 l 518 624 b 574 496 556 607 574 593 l 574 153 b 354 35 511 86 436 35 b 199 264 243 35 199 106 l 199 696 l 186 706 l 35 639 l 35 624 b 90 496 72 607 90 593 l 90 239 b 303 -14 90 79 157 -14 z m 540 904 b 582 944 572 919 582 929 b 513 985 582 961 542 985 b 454 953 496 985 483 982 l 314 814 l 319 804 z "},"û":{"ha":786,"x_min":0,"x_max":0,"o":"m 303 -14 b 574 126 407 -14 503 53 l 574 56 b 619 0 574 15 589 0 l 738 0 l 738 18 b 682 176 694 31 682 63 l 682 696 l 669 706 l 518 639 l 518 624 b 574 496 556 607 574 593 l 574 153 b 354 35 511 86 436 35 b 199 264 243 35 199 106 l 199 696 l 186 706 l 35 639 l 35 624 b 90 496 72 607 90 593 l 90 239 b 303 -14 90 79 157 -14 z m 257 800 l 417 894 l 583 800 l 594 811 l 421 990 l 413 990 l 246 810 z "},"ü":{"ha":786,"x_min":0,"x_max":0,"o":"m 303 -14 b 574 126 407 -14 503 53 l 574 56 b 619 0 574 15 589 0 l 738 0 l 738 18 b 682 176 694 31 682 63 l 682 696 l 669 706 l 518 639 l 518 624 b 574 496 556 607 574 593 l 574 153 b 354 35 511 86 436 35 b 199 264 243 35 199 106 l 199 696 l 186 706 l 35 639 l 35 624 b 90 496 72 607 90 593 l 90 239 b 303 -14 90 79 157 -14 z m 539 801 b 601 864 574 801 601 828 b 539 928 601 900 574 928 b 474 867 501 928 474 900 b 539 801 474 828 501 801 z m 303 801 b 367 864 339 801 367 828 b 303 928 367 900 340 928 b 239 867 267 928 239 900 b 303 801 239 828 267 801 z "},"ý":{"ha":700,"x_min":0,"x_max":0,"o":"m 42 -268 b 371 35 131 -267 253 -237 l 586 532 b 707 676 632 636 668 664 l 707 694 l 553 694 l 553 676 b 565 532 601 667 604 622 l 394 135 l 224 532 b 210 676 179 636 168 664 l 210 694 l 0 694 l 0 676 b 107 532 29 664 64 636 l 335 -3 b 208 -185 300 -75 257 -143 b 33 -153 144 -174 69 -153 b -53 -229 -18 -153 -53 -203 b 42 -268 -53 -251 -12 -269 z m 424 904 b 465 944 456 919 465 929 b 396 985 465 961 425 985 b 338 953 379 985 367 982 l 197 814 l 203 804 z "},"þ":{"ha":831,"x_min":0,"x_max":0,"o":"m 403 -12 b 771 394 640 -11 771 185 b 500 704 771 583 665 704 b 217 586 404 704 297 649 l 217 1113 l 204 1122 l 53 1056 l 53 1040 b 108 913 90 1024 108 1010 l 108 -199 b 53 -357 108 -312 96 -344 l 53 -375 l 272 -375 l 272 -357 b 217 -199 231 -344 217 -312 l 217 39 b 403 -12 265 8 329 -12 z m 217 140 l 217 564 b 433 658 285 618 363 658 b 669 301 596 658 669 482 b 447 15 669 131 599 15 b 217 140 343 15 258 78 z "},"ÿ":{"ha":700,"x_min":0,"x_max":0,"o":"m 42 -268 b 371 35 131 -267 253 -237 l 586 532 b 707 676 632 636 668 664 l 707 694 l 553 694 l 553 676 b 565 532 601 667 604 622 l 394 135 l 224 532 b 210 676 179 636 168 664 l 210 694 l 0 694 l 0 676 b 107 532 29 664 64 636 l 335 -3 b 208 -185 300 -75 257 -143 b 33 -153 144 -174 69 -153 b -53 -229 -18 -153 -53 -203 b 42 -268 -53 -251 -12 -269 z m 424 801 b 486 864 458 801 486 828 b 424 928 486 900 458 928 b 358 867 386 928 358 900 b 424 801 358 828 386 801 z m 188 801 b 251 864 224 801 251 828 b 188 928 251 900 225 928 b 124 867 151 928 124 900 b 188 801 124 828 151 801 z "},"ğ":{"ha":726,"x_min":0,"x_max":0,"o":"m 247 -385 b 722 -43 476 -385 722 -201 b 500 93 722 65 640 85 l 325 104 b 172 169 219 110 174 132 b 222 231 172 196 192 210 b 357 204 265 213 314 204 b 631 465 471 204 631 306 b 476 683 631 585 561 653 b 521 731 490 703 506 719 b 658 699 583 711 624 699 b 738 769 708 699 738 746 b 665 803 738 790 708 803 b 507 740 599 803 549 778 b 458 690 489 726 472 708 b 357 704 426 700 390 704 b 82 442 214 704 82 588 b 204 239 82 339 135 275 b 103 117 149 203 103 168 b 204 13 103 57 142 28 b 21 -214 92 -56 21 -126 b 247 -385 21 -339 142 -385 z m 383 226 b 183 503 256 226 183 382 b 324 683 183 600 225 679 b 531 403 450 690 531 528 b 383 226 531 308 486 226 z m 368 790 b 533 953 439 790 472 836 l 519 960 b 368 868 478 899 446 868 b 217 960 290 868 260 899 l 201 953 b 368 790 263 836 297 790 z m 114 -162 b 225 8 114 -103 144 -46 b 304 0 250 4 276 1 l 499 -10 b 668 -101 614 -17 668 -36 b 326 -322 668 -211 504 -322 b 114 -162 197 -322 114 -262 z "},"Œ":{"ha":1408,"x_min":0,"x_max":0,"o":"m 571 -14 b 740 0 631 -14 692 -8 l 1347 0 l 1356 158 l 1340 160 b 1099 22 1292 56 1232 22 l 915 22 b 853 85 875 22 853 44 l 853 519 l 1036 519 b 1250 425 1193 519 1233 486 l 1268 425 l 1268 636 l 1250 636 b 1036 542 1233 574 1193 542 l 853 542 l 853 950 l 1083 950 b 1328 822 1225 950 1286 914 l 1343 825 l 1331 972 l 792 972 b 607 982 731 979 661 982 b 72 476 340 982 72 813 b 571 -14 72 146 324 -14 z m 613 17 b 181 569 343 17 179 315 b 554 947 182 790 324 947 b 740 847 649 947 740 913 l 740 106 b 613 17 740 51 696 17 z "},"œ":{"ha":1375,"x_min":0,"x_max":0,"o":"m 406 -14 b 726 165 522 -14 656 42 b 1021 -14 786 44 910 -14 b 1349 182 1169 -14 1278 85 l 1336 194 b 1089 74 1272 122 1196 74 b 790 394 908 74 790 204 b 794 458 790 417 792 438 l 1338 458 b 1057 704 1333 590 1232 704 b 742 524 926 704 807 636 b 435 704 685 642 560 704 b 50 331 247 704 50 571 b 406 -14 50 97 236 -14 z m 457 21 b 149 422 286 21 147 213 b 378 672 150 579 250 672 b 686 283 565 674 686 476 b 457 21 686 117 597 21 z m 799 476 b 1011 679 821 593 893 681 b 1226 476 1138 679 1213 569 z "},"Ÿ":{"ha":764,"x_min":0,"x_max":0,"o":"m 263 0 l 489 0 l 489 18 b 433 176 446 31 433 63 l 433 440 l 646 818 b 782 954 701 917 744 942 l 782 972 l 617 972 l 617 954 b 621 818 669 944 668 903 l 426 474 l 233 818 b 203 954 178 917 161 942 l 203 972 l -17 972 l -17 954 b 107 818 13 942 53 917 l 317 438 l 317 176 b 263 18 318 63 304 31 z m 499 1079 b 561 1142 533 1079 561 1106 b 499 1206 561 1178 533 1206 b 433 1144 461 1206 433 1178 b 499 1079 433 1106 461 1079 z m 263 1079 b 326 1142 299 1079 326 1106 b 263 1206 326 1178 300 1206 b 199 1144 226 1206 199 1178 b 263 1079 199 1106 226 1079 z "},"–":{"ha":785,"x_min":0,"x_max":0,"o":"m 72 338 l 713 338 l 713 357 l 72 357 z "},"—":{"ha":1340,"x_min":0,"x_max":0,"o":"m 72 338 l 1268 338 l 1268 357 l 72 357 z "},"‘":{"ha":281,"x_min":0,"x_max":0,"o":"m 239 1007 l 233 1019 b 69 799 151 990 69 900 b 157 692 68 731 103 692 b 232 771 201 692 232 725 b 164 839 232 808 201 839 b 131 832 151 839 142 836 b 239 1007 135 903 167 971 z "},"’":{"ha":281,"x_min":0,"x_max":0,"o":"m 42 692 l 47 679 b 211 900 129 708 211 799 b 124 1007 213 968 178 1007 b 49 928 79 1007 49 974 b 117 860 49 890 79 860 b 150 867 129 860 139 863 b 42 692 146 796 114 728 z "},"“":{"ha":489,"x_min":0,"x_max":0,"o":"m 419 1007 l 414 1019 b 250 799 332 990 250 900 b 338 692 249 731 283 692 b 413 771 382 692 413 725 b 344 839 413 808 382 839 b 311 832 332 839 322 836 b 419 1007 315 903 347 971 z m 211 1007 l 206 1019 b 42 799 124 990 42 900 b 129 692 40 731 75 692 b 204 771 174 692 204 725 b 136 839 204 808 174 839 b 103 832 124 839 114 836 b 211 1007 107 903 139 971 z "},"”":{"ha":489,"x_min":0,"x_max":0,"o":"m 42 697 l 47 685 b 211 906 129 714 211 804 b 124 1013 213 974 178 1013 b 49 933 79 1013 49 979 b 117 865 49 896 79 865 b 150 872 129 865 139 868 b 42 697 146 801 114 733 z m 249 697 l 254 685 b 418 906 336 714 418 804 b 331 1013 419 974 385 1013 b 256 933 286 1013 256 979 b 324 865 256 896 286 865 b 357 872 336 865 346 868 b 249 697 353 801 321 733 z "},"„":{"ha":489,"x_min":0,"x_max":0,"o":"m 69 -176 l 75 -189 b 239 32 157 -160 239 -69 b 151 139 240 100 206 139 b 76 60 107 139 76 106 b 144 -8 76 22 107 -8 b 178 -1 157 -8 167 -6 b 69 -176 174 -72 142 -140 z m 276 -176 l 282 -189 b 446 32 364 -160 446 -69 b 358 139 447 100 413 139 b 283 60 314 139 283 106 b 351 -8 283 22 314 -8 b 385 -1 364 -8 374 -6 b 276 -176 381 -72 349 -140 z "},"•":{"ha":404,"x_min":0,"x_max":0,"o":"m 204 256 b 325 385 271 256 325 315 b 204 511 325 454 271 511 b 81 385 138 511 81 454 b 204 256 81 315 138 256 z "},"…":{"ha":796,"x_min":0,"x_max":0,"o":"m 156 -10 b 226 65 194 -10 226 25 b 156 139 226 106 194 139 b 83 65 117 139 83 106 b 156 -10 83 25 117 -10 z m 433 -10 b 504 65 472 -10 504 25 b 433 139 504 106 472 139 b 361 65 394 139 361 106 b 433 -10 361 25 394 -10 z m 711 -10 b 782 65 750 -10 782 25 b 711 139 782 106 750 139 b 639 65 672 139 639 106 b 711 -10 639 25 672 -10 z "},"‹":{"ha":560,"x_min":0,"x_max":0,"o":"m 444 33 l 458 50 l 110 347 l 458 644 l 444 661 l 76 347 z "},"›":{"ha":560,"x_min":0,"x_max":0,"o":"m 92 33 l 460 347 l 92 661 l 78 644 l 426 347 l 78 50 z "},"€":{"ha":963,"x_min":0,"x_max":0,"o":"m 513 -11 b 940 278 707 -11 854 99 l 924 286 b 578 83 832 126 682 83 b 179 363 363 83 232 203 l 606 363 l 614 383 l 174 383 b 154 539 160 432 154 485 b 158 599 154 558 156 579 l 689 599 l 697 619 l 161 619 b 543 953 193 803 322 953 b 874 756 671 953 800 908 l 888 760 l 872 921 b 589 982 828 949 719 982 b 67 619 354 982 136 846 l -22 619 l -31 599 l 61 599 b 44 463 50 556 44 511 b 50 383 44 435 46 408 l -22 383 l -31 363 l 53 363 b 513 -11 97 129 292 -11 z "},"™":{"ha":1133,"x_min":0,"x_max":0,"o":"m 492 388 l 599 388 l 599 399 b 542 526 561 408 542 432 l 542 931 l 757 451 l 769 451 l 983 933 l 983 493 b 950 399 983 425 975 406 l 950 388 l 1090 388 l 1090 399 b 1057 493 1064 406 1057 425 l 1057 867 b 1090 961 1057 935 1064 954 l 1090 972 l 982 972 l 793 549 l 603 972 l 492 972 l 492 961 b 525 867 517 954 525 935 l 525 493 b 492 399 525 425 517 406 z m 158 388 l 300 388 l 300 399 b 267 493 275 406 267 425 l 267 957 l 308 957 b 429 868 360 957 401 932 l 439 868 l 429 972 l 29 972 l 18 868 l 28 868 b 150 957 56 932 100 957 l 192 957 l 192 493 b 158 399 192 425 183 406 z "}}}
